<svg width="1280" height="720" xmlns="http://www.w3.org/2000/svg" xmlns:xlink="http://www.w3.org/1999/xlink" overflow="hidden"><g><rect x="0" y="0" width="1280" height="720" fill="#FFFFFF"/><text font-family="DengXian,DengXian_MSFontService,sans-serif" font-weight="400" font-size="15" transform="translate(359.065 27)">add</text><text font-family="DengXian,DengXian_MSFontService,sans-serif" font-weight="400" font-size="15" transform="translate(360.065 52)">sub</text><text font-family="DengXian,DengXian_MSFontService,sans-serif" font-weight="400" font-size="15" transform="translate(359.315 78)">and</text><text font-family="DengXian,DengXian_MSFontService,sans-serif" font-weight="400" font-size="15" transform="translate(364.565 104)">or</text><text font-family="DengXian,DengXian_MSFontService,sans-serif" font-weight="400" font-size="15" transform="translate(361.315 130)">xor</text><text font-family="DengXian,DengXian_MSFontService,sans-serif" font-weight="400" font-size="15" transform="translate(364.232 155)">slt</text><text font-family="DengXian,DengXian_MSFontService,sans-serif" font-weight="400" font-size="15" transform="translate(360.232 181)">seq</text><text font-family="DengXian,DengXian_MSFontService,sans-serif" font-weight="400" font-size="15" transform="translate(361.648 207)">sgt</text><text font-family="DengXian,DengXian_MSFontService,sans-serif" font-weight="400" font-size="15" transform="translate(364.898 233)">sll</text><text font-family="DengXian,DengXian_MSFontService,sans-serif" font-weight="400" font-size="15" transform="translate(364.065 258)">srl</text><text font-family="DengXian,DengXian_MSFontService,sans-serif" font-weight="400" font-size="15" transform="translate(362.065 284)">sra</text><text font-family="DengXian,DengXian_MSFontService,sans-serif" font-weight="400" font-size="15" transform="translate(367.065 310)">jr</text><text font-family="DengXian,DengXian_MSFontService,sans-serif" font-weight="400" font-size="15" transform="translate(357.398 336)">addi</text><text font-family="DengXian,DengXian_MSFontService,sans-serif" font-weight="400" font-size="15" transform="translate(358.398 361)">subi</text><text font-family="DengXian,DengXian_MSFontService,sans-serif" font-weight="400" font-size="15" transform="translate(357.648 387)">andi</text><text font-family="DengXian,DengXian_MSFontService,sans-serif" font-weight="400" font-size="15" transform="translate(362.898 413)">ori</text><text font-family="DengXian,DengXian_MSFontService,sans-serif" font-weight="400" font-size="15" transform="translate(359.648 439)">xori</text><text font-family="DengXian,DengXian_MSFontService,sans-serif" font-weight="400" font-size="15" transform="translate(362.565 464)">slti</text><text font-family="DengXian,DengXian_MSFontService,sans-serif" font-weight="400" font-size="15" transform="translate(358.565 490)">seqi</text><text font-family="DengXian,DengXian_MSFontService,sans-serif" font-weight="400" font-size="15" transform="translate(359.982 516)">sgti</text><text font-family="DengXian,DengXian_MSFontService,sans-serif" font-weight="400" font-size="15" transform="translate(363.232 542)">slli</text><text font-family="DengXian,DengXian_MSFontService,sans-serif" font-weight="400" font-size="15" transform="translate(362.398 567)">srli</text><text font-family="DengXian,DengXian_MSFontService,sans-serif" font-weight="400" font-size="15" transform="translate(360.398 593)">srai</text><text font-family="DengXian,DengXian_MSFontService,sans-serif" font-weight="400" font-size="15" transform="translate(364.398 619)">lw</text><text font-family="DengXian,DengXian_MSFontService,sans-serif" font-weight="400" font-size="15" transform="translate(363.065 645)">sw</text><text font-family="DengXian,DengXian_MSFontService,sans-serif" font-weight="400" font-size="15" transform="translate(359.065 670)">beq</text><text font-family="DengXian,DengXian_MSFontService,sans-serif" font-weight="400" font-size="15" transform="translate(369.565 696)">j</text><path d="M389.026 48.1109 410.893 48.1109" stroke="#000000" stroke-width="1.33333" stroke-linejoin="round" stroke-miterlimit="10" fill="none" fill-rule="evenodd"/><path d="M389.026 73.8117 410.893 73.8117" stroke="#000000" stroke-width="1.33333" stroke-linejoin="round" stroke-miterlimit="10" fill="none" fill-rule="evenodd"/><path d="M389.026 99.5124 410.893 99.5124" stroke="#000000" stroke-width="1.33333" stroke-linejoin="round" stroke-miterlimit="10" fill="none" fill-rule="evenodd"/><path d="M389.026 125.213 410.893 125.213" stroke="#000000" stroke-width="1.33333" stroke-linejoin="round" stroke-miterlimit="10" fill="none" fill-rule="evenodd"/><path d="M389.026 150.914 410.893 150.914" stroke="#000000" stroke-width="1.33333" stroke-linejoin="round" stroke-miterlimit="10" fill="none" fill-rule="evenodd"/><path d="M389.026 176.615 410.893 176.615" stroke="#000000" stroke-width="1.33333" stroke-linejoin="round" stroke-miterlimit="10" fill="none" fill-rule="evenodd"/><path d="M389.026 202.316 410.893 202.316" stroke="#000000" stroke-width="1.33333" stroke-linejoin="round" stroke-miterlimit="10" fill="none" fill-rule="evenodd"/><path d="M389.026 228.016 410.893 228.016" stroke="#000000" stroke-width="1.33333" stroke-linejoin="round" stroke-miterlimit="10" fill="none" fill-rule="evenodd"/><path d="M389.026 253.717 410.893 253.717" stroke="#000000" stroke-width="1.33333" stroke-linejoin="round" stroke-miterlimit="10" fill="none" fill-rule="evenodd"/><path d="M389.026 22.4101 410.893 22.4101" stroke="#000000" stroke-width="1.33333" stroke-linejoin="round" stroke-miterlimit="10" fill="none" fill-rule="evenodd"/><path d="M389.026 279.418 410.893 279.418" stroke="#000000" stroke-width="1.33333" stroke-linejoin="round" stroke-miterlimit="10" fill="none" fill-rule="evenodd"/><path d="M389.134 356.402 411.001 356.402" stroke="#000000" stroke-width="1.33333" stroke-linejoin="round" stroke-miterlimit="10" fill="none" fill-rule="evenodd"/><path d="M389.134 382.102 411.001 382.102" stroke="#000000" stroke-width="1.33333" stroke-linejoin="round" stroke-miterlimit="10" fill="none" fill-rule="evenodd"/><path d="M389.134 407.803 411.001 407.803" stroke="#000000" stroke-width="1.33333" stroke-linejoin="round" stroke-miterlimit="10" fill="none" fill-rule="evenodd"/><path d="M389.134 433.504 411.001 433.504" stroke="#000000" stroke-width="1.33333" stroke-linejoin="round" stroke-miterlimit="10" fill="none" fill-rule="evenodd"/><path d="M389.134 459.205 411.001 459.205" stroke="#000000" stroke-width="1.33333" stroke-linejoin="round" stroke-miterlimit="10" fill="none" fill-rule="evenodd"/><path d="M389.134 484.906 411.001 484.906" stroke="#000000" stroke-width="1.33333" stroke-linejoin="round" stroke-miterlimit="10" fill="none" fill-rule="evenodd"/><path d="M389.134 510.606 411.001 510.606" stroke="#000000" stroke-width="1.33333" stroke-linejoin="round" stroke-miterlimit="10" fill="none" fill-rule="evenodd"/><path d="M389.134 536.307 411.001 536.307" stroke="#000000" stroke-width="1.33333" stroke-linejoin="round" stroke-miterlimit="10" fill="none" fill-rule="evenodd"/><path d="M389.134 562.008 411.001 562.008" stroke="#000000" stroke-width="1.33333" stroke-linejoin="round" stroke-miterlimit="10" fill="none" fill-rule="evenodd"/><path d="M389.134 330.701 411.001 330.701" stroke="#000000" stroke-width="1.33333" stroke-linejoin="round" stroke-miterlimit="10" fill="none" fill-rule="evenodd"/><path d="M389.134 587.709 411.001 587.709" stroke="#000000" stroke-width="1.33333" stroke-linejoin="round" stroke-miterlimit="10" fill="none" fill-rule="evenodd"/><rect x="418" y="11" width="63" height="278" stroke="#000000" stroke-width="2" stroke-miterlimit="8" fill="none"/><text font-family="DengXian,DengXian_MSFontService,sans-serif" font-weight="400" font-size="24" transform="translate(440.457 158)">&amp;</text><rect x="419" y="323" width="61" height="273" stroke="#000000" stroke-width="2" stroke-miterlimit="8" fill="none"/><text font-family="DengXian,DengXian_MSFontService,sans-serif" font-weight="400" font-size="24" transform="translate(440.573 467)">&amp;</text><path d="M0 0 17.4427 0 17.4427 130.628 259.951 130.628" stroke="#000000" stroke-width="2" stroke-miterlimit="8" fill="none" fill-rule="evenodd" transform="matrix(1 0 0 -1 487 149.628)"/><path d="M0 0 24.6849 0 24.6849 426.817" stroke="#000000" stroke-width="2" stroke-miterlimit="8" fill="none" fill-rule="evenodd" transform="matrix(1 0 0 -1 487 458.817)"/><path d="M389 616 830.812 616" stroke="#000000" stroke-width="2" stroke-miterlimit="8" fill="none" fill-rule="evenodd"/><path d="M511 30 746.759 30.6458" stroke="#000000" stroke-width="2" stroke-miterlimit="8" fill="none" fill-rule="evenodd"/><path d="M0 0 227.673 0 227.673 571.481" stroke="#000000" stroke-width="2" stroke-miterlimit="8" fill="none" fill-rule="evenodd" transform="matrix(-1 1.22465e-16 1.22465e-16 1 746.673 41)"/><path d="M804 31 836.444 31.0001" stroke="#000000" stroke-width="2" stroke-miterlimit="8" fill="none" fill-rule="evenodd"/><text font-family="DengXian,DengXian_MSFontService,sans-serif" font-weight="400" font-size="19" transform="translate(845.94 36)">RegWrite</text><path d="M723 83.9999 761 104.5 723 125Z" stroke="#000000" stroke-width="2" stroke-miterlimit="8" fill="none" fill-rule="evenodd"/><path d="M723 151 761 171.5 723 192Z" stroke="#000000" stroke-width="2" stroke-miterlimit="8" fill="none" fill-rule="evenodd"/><path d="M723 217 761 237.5 723 258Z" stroke="#000000" stroke-width="2" stroke-miterlimit="8" fill="none" fill-rule="evenodd"/><path d="M723 281 761 302 723 323Z" stroke="#000000" stroke-width="2" stroke-miterlimit="8" fill="none" fill-rule="evenodd"/><path d="M687 104 722.778 104" stroke="#000000" stroke-width="4" stroke-miterlimit="8" fill="none" fill-rule="evenodd"/><path d="M687 171 722.778 171" stroke="#000000" stroke-width="4" stroke-miterlimit="8" fill="none" fill-rule="evenodd"/><path d="M687 237 722.778 237" stroke="#000000" stroke-width="4" stroke-miterlimit="8" fill="none" fill-rule="evenodd"/><path d="M687 301 722.778 301" stroke="#000000" stroke-width="4" stroke-miterlimit="8" fill="none" fill-rule="evenodd"/><text font-family="DengXian,DengXian_MSFontService,sans-serif" font-weight="400" font-size="19" transform="translate(611.428 107)">func[3:0]</text><text font-family="DengXian,DengXian_MSFontService,sans-serif" font-weight="400" font-size="19" transform="translate(624.524 174)">op[3:0]</text><text font-family="DengXian,DengXian_MSFontService,sans-serif" font-weight="400" font-size="19" transform="translate(640.398 306)">1010</text><text font-family="DengXian,DengXian_MSFontService,sans-serif" font-weight="400" font-size="19" transform="translate(641.473 243)">0001</text><path d="M0 0 27.3076 0 27.3076 234.07" stroke="#000000" stroke-width="2" stroke-miterlimit="8" fill="none" fill-rule="evenodd" transform="matrix(-1.83697e-16 -1 -1 1.83697e-16 742.069 94.3077)"/><path d="M501 67C501 65.3431 502.567 64 504.5 64 506.433 64 508 65.3431 508 67 508 68.6569 506.433 70 504.5 70 502.567 70 501 68.6569 501 67Z" stroke="#000000" stroke-width="2" stroke-miterlimit="8" fill-rule="evenodd"/><path d="M0 0 23.6481 0 23.6481 226.669" stroke="#000000" stroke-width="2" stroke-miterlimit="8" fill="none" fill-rule="evenodd" transform="matrix(-1.83697e-16 -1 -1 1.83697e-16 741.669 160.648)"/><path d="M508 137.5C508 135.567 509.567 134 511.5 134 513.433 134 515 135.567 515 137.5 515 139.433 513.433 141 511.5 141 509.567 141 508 139.433 508 137.5Z" stroke="#000000" stroke-width="2" stroke-miterlimit="8" fill-rule="evenodd"/><path d="M389 640 830.812 640" stroke="#000000" stroke-width="2" stroke-miterlimit="8" fill="none" fill-rule="evenodd"/><path d="M516 615.5C516 613.567 517.567 612 519.5 612 521.433 612 523 613.567 523 615.5 523 617.433 521.433 619 519.5 619 517.567 619 516 617.433 516 615.5Z" stroke="#000000" stroke-width="2" stroke-miterlimit="8" fill-rule="evenodd"/><path d="M0 0 0.000104987 70.8063" stroke="#000000" stroke-width="2" stroke-miterlimit="8" fill="none" fill-rule="evenodd" transform="matrix(1 0 0 -1 540 611.806)"/><path d="M0 0 0.000104987 96.2969" stroke="#000000" stroke-width="2" stroke-miterlimit="8" fill="none" fill-rule="evenodd" transform="matrix(1 0 0 -1 561 637.297)"/><path d="M537 615.5C537 613.567 538.343 612 540 612 541.657 612 543 613.567 543 615.5 543 617.433 541.657 619 540 619 538.343 619 537 617.433 537 615.5Z" stroke="#000000" stroke-width="2" stroke-miterlimit="8" fill-rule="evenodd"/><path d="M557 640.5C557 638.567 558.567 637 560.5 637 562.433 637 564 638.567 564 640.5 564 642.433 562.433 644 560.5 644 558.567 644 557 642.433 557 640.5Z" stroke="#000000" stroke-width="2" stroke-miterlimit="8" fill-rule="evenodd"/><path d="M741.599 227 741.599 204.916 549.487 204.916 549.487 489.191 549 489.191" stroke="#000000" stroke-width="2" stroke-miterlimit="8" fill="none" fill-rule="evenodd"/><path d="M389 668 830.279 668" stroke="#000000" stroke-width="2" stroke-miterlimit="8" fill="none" fill-rule="evenodd"/><path d="M577 667.5C577 665.567 578.567 664 580.5 664 582.433 664 584 665.567 584 667.5 584 669.433 582.433 671 580.5 671 578.567 671 577 669.433 577 667.5Z" stroke="#000000" stroke-width="2" stroke-miterlimit="8" fill-rule="evenodd"/><path d="M742.308 291 742.308 270.038 581 270.038 581 663.469" stroke="#000000" stroke-width="2" stroke-miterlimit="8" fill="none" fill-rule="evenodd"/><path d="M761 105 784.718 105" stroke="#000000" stroke-width="4" stroke-miterlimit="8" fill="none" fill-rule="evenodd"/><path d="M761 171 780.904 171.13" stroke="#000000" stroke-width="4" stroke-miterlimit="8" fill="none" fill-rule="evenodd"/><path d="M761 238 780.904 238.083" stroke="#000000" stroke-width="4" stroke-miterlimit="8" fill="none" fill-rule="evenodd"/><path d="M761 302 784.718 302" stroke="#000000" stroke-width="4" stroke-miterlimit="8" fill="none" fill-rule="evenodd"/><path d="M785 102 785 304" stroke="#000000" stroke-width="4" stroke-miterlimit="8" fill="none" fill-rule="evenodd"/><path d="M789 204 830.129 204" stroke="#000000" stroke-width="4" stroke-miterlimit="8" fill="none" fill-rule="evenodd"/><text font-family="DengXian,DengXian_MSFontService,sans-serif" font-weight="400" font-size="19" transform="translate(838.278 209)">AluOp</text><path d="M781 171.5C781 169.567 782.791 168 785 168 787.209 168 789 169.567 789 171.5 789 173.433 787.209 175 785 175 782.791 175 781 173.433 781 171.5Z" stroke="#000000" stroke-width="2" stroke-miterlimit="8" fill-rule="evenodd"/><path d="M781 238C781 235.791 782.791 234 785 234 787.209 234 789 235.791 789 238 789 240.209 787.209 242 785 242 782.791 242 781 240.209 781 238Z" stroke="#000000" stroke-width="2" stroke-miterlimit="8" fill-rule="evenodd"/><path d="M781 204.5C781 202.567 782.791 201 785 201 787.209 201 789 202.567 789 204.5 789 206.433 787.209 208 785 208 782.791 208 781 206.433 781 204.5Z" stroke="#000000" stroke-width="2" stroke-miterlimit="8" fill-rule="evenodd"/><path d="M509 422C509 420.343 510.343 419 512 419 513.657 419 515 420.343 515 422 515 423.657 513.657 425 512 425 510.343 425 509 423.657 509 422Z" stroke="#000000" stroke-width="2" stroke-miterlimit="8" fill-rule="evenodd"/><path d="M546 439.5C546 437.567 547.567 436 549.5 436 551.433 436 553 437.567 553 439.5 553 441.433 551.433 443 549.5 443 547.567 443 546 441.433 546 439.5Z" stroke="#000000" stroke-width="2" stroke-miterlimit="8" fill-rule="evenodd"/><path d="M0 0 200.337 0.590551" stroke="#000000" stroke-width="2" stroke-miterlimit="8" fill="none" fill-rule="evenodd" transform="matrix(1 0 0 -1 515 421.591)"/><path d="M0 0 162.995 0.915171" stroke="#000000" stroke-width="2" stroke-miterlimit="8" fill="none" fill-rule="evenodd" transform="matrix(1 0 0 -1 553 439.915)"/><path d="M773 430 828.159 430" stroke="#000000" stroke-width="2" stroke-miterlimit="8" fill="none" fill-rule="evenodd"/><text font-family="DengXian,DengXian_MSFontService,sans-serif" font-weight="400" font-size="19" transform="translate(836.807 435)">Imm</text><text font-family="DengXian,DengXian_MSFontService,sans-serif" font-weight="400" font-size="19" transform="translate(837.43 371)">RegBranch</text><text font-family="DengXian,DengXian_MSFontService,sans-serif" font-weight="400" font-size="19" transform="translate(837.643 672)">NearBranch</text><path d="M389 693 830.279 693" stroke="#000000" stroke-width="2" stroke-miterlimit="8" fill="none" fill-rule="evenodd"/><text font-family="DengXian,DengXian_MSFontService,sans-serif" font-weight="400" font-size="19" transform="translate(837.146 697)">AbsBranch</text><text font-family="DengXian,DengXian_MSFontService,sans-serif" font-weight="400" font-size="19" transform="translate(837.325 619)">MemRead</text><text font-family="DengXian,DengXian_MSFontService,sans-serif" font-weight="400" font-size="19" transform="translate(837.987 646)">MemWrite</text><text font-family="DengXian,DengXian_MSFontService,sans-serif" font-weight="400" font-size="19" transform="translate(677.196 504)">sll</text><text font-family="DengXian,DengXian_MSFontService,sans-serif" font-weight="400" font-size="19" transform="translate(676.112 536)">srl</text><text font-family="DengXian,DengXian_MSFontService,sans-serif" font-weight="400" font-size="19" transform="translate(673.529 568)">sra</text><path d="M799 530 829.275 530" stroke="#000000" stroke-width="2" stroke-miterlimit="8" fill="none" fill-rule="evenodd"/><text font-family="DengXian,DengXian_MSFontService,sans-serif" font-weight="400" font-size="19" transform="translate(837.143 535)">Shift</text><path d="M702 530 748.645 530" stroke="#000000" stroke-width="2" stroke-miterlimit="8" fill="none" fill-rule="evenodd"/><path d="M703 498 725.938 498 725.938 518.25 748.877 518.25" stroke="#000000" stroke-width="2" stroke-miterlimit="8" fill="none" fill-rule="evenodd"/><path d="M0 0 22.9385 0 22.9385 22.8719 45.877 22.8719" stroke="#000000" stroke-width="2" stroke-miterlimit="8" fill="none" fill-rule="evenodd" transform="matrix(1 0 0 -1 703 563.872)"/><path d="M389 305 608.954 305 608.954 367.026 828.909 367.026" stroke="#000000" stroke-width="2" stroke-miterlimit="8" fill="none" fill-rule="evenodd"/><path d="M410 330.5C410 328.567 411.567 327 413.5 327 415.433 327 417 328.567 417 330.5 417 332.433 415.433 334 413.5 334 411.567 334 410 332.433 410 330.5Z" stroke="#000000" stroke-width="2" stroke-miterlimit="8" fill="none" fill-rule="evenodd"/><path d="M410 355.5C410 353.567 411.567 352 413.5 352 415.433 352 417 353.567 417 355.5 417 357.433 415.433 359 413.5 359 411.567 359 410 357.433 410 355.5Z" stroke="#000000" stroke-width="2" stroke-miterlimit="8" fill="none" fill-rule="evenodd"/><path d="M410 382C410 380.343 411.567 379 413.5 379 415.433 379 417 380.343 417 382 417 383.657 415.433 385 413.5 385 411.567 385 410 383.657 410 382Z" stroke="#000000" stroke-width="2" stroke-miterlimit="8" fill="none" fill-rule="evenodd"/><path d="M410 408C410 406.343 411.567 405 413.5 405 415.433 405 417 406.343 417 408 417 409.657 415.433 411 413.5 411 411.567 411 410 409.657 410 408Z" stroke="#000000" stroke-width="2" stroke-miterlimit="8" fill="none" fill-rule="evenodd"/><path d="M410 433.5C410 431.567 411.567 430 413.5 430 415.433 430 417 431.567 417 433.5 417 435.433 415.433 437 413.5 437 411.567 437 410 435.433 410 433.5Z" stroke="#000000" stroke-width="2" stroke-miterlimit="8" fill="none" fill-rule="evenodd"/><path d="M410 458.5C410 456.567 411.567 455 413.5 455 415.433 455 417 456.567 417 458.5 417 460.433 415.433 462 413.5 462 411.567 462 410 460.433 410 458.5Z" stroke="#000000" stroke-width="2" stroke-miterlimit="8" fill="none" fill-rule="evenodd"/><path d="M410 485C410 483.343 411.567 482 413.5 482 415.433 482 417 483.343 417 485 417 486.657 415.433 488 413.5 488 411.567 488 410 486.657 410 485Z" stroke="#000000" stroke-width="2" stroke-miterlimit="8" fill="none" fill-rule="evenodd"/><path d="M410 511C410 509.343 411.567 508 413.5 508 415.433 508 417 509.343 417 511 417 512.657 415.433 514 413.5 514 411.567 514 410 512.657 410 511Z" stroke="#000000" stroke-width="2" stroke-miterlimit="8" fill="none" fill-rule="evenodd"/><path d="M410 536C410 534.343 411.567 533 413.5 533 415.433 533 417 534.343 417 536 417 537.657 415.433 539 413.5 539 411.567 539 410 537.657 410 536Z" stroke="#000000" stroke-width="2" stroke-miterlimit="8" fill="none" fill-rule="evenodd"/><path d="M410 562.5C410 560.567 411.567 559 413.5 559 415.433 559 417 560.567 417 562.5 417 564.433 415.433 566 413.5 566 411.567 566 410 564.433 410 562.5Z" stroke="#000000" stroke-width="2" stroke-miterlimit="8" fill="none" fill-rule="evenodd"/><path d="M410 588.5C410 586.567 411.567 585 413.5 585 415.433 585 417 586.567 417 588.5 417 590.433 415.433 592 413.5 592 411.567 592 410 590.433 410 588.5Z" stroke="#000000" stroke-width="2" stroke-miterlimit="8" fill="none" fill-rule="evenodd"/><path d="M411 22.5C411 20.567 412.567 19 414.5 19 416.433 19 418 20.567 418 22.5 418 24.433 416.433 26 414.5 26 412.567 26 411 24.433 411 22.5Z" stroke="#000000" stroke-width="2" stroke-miterlimit="8" fill="none" fill-rule="evenodd"/><path d="M411 47.5C411 45.567 412.567 44 414.5 44 416.433 44 418 45.567 418 47.5 418 49.433 416.433 51 414.5 51 412.567 51 411 49.433 411 47.5Z" stroke="#000000" stroke-width="2" stroke-miterlimit="8" fill="none" fill-rule="evenodd"/><path d="M411 73.5C411 71.567 412.567 70 414.5 70 416.433 70 418 71.567 418 73.5 418 75.433 416.433 77 414.5 77 412.567 77 411 75.433 411 73.5Z" stroke="#000000" stroke-width="2" stroke-miterlimit="8" fill="none" fill-rule="evenodd"/><path d="M411 99.5C411 97.567 412.567 96 414.5 96 416.433 96 418 97.567 418 99.5 418 101.433 416.433 103 414.5 103 412.567 103 411 101.433 411 99.5Z" stroke="#000000" stroke-width="2" stroke-miterlimit="8" fill="none" fill-rule="evenodd"/><path d="M480 150C480 148.343 481.567 147 483.5 147 485.433 147 487 148.343 487 150 487 151.657 485.433 153 483.5 153 481.567 153 480 151.657 480 150Z" stroke="#000000" stroke-width="2" stroke-miterlimit="8" fill="none" fill-rule="evenodd"/><path d="M411 150.5C411 148.567 412.567 147 414.5 147 416.433 147 418 148.567 418 150.5 418 152.433 416.433 154 414.5 154 412.567 154 411 152.433 411 150.5Z" stroke="#000000" stroke-width="2" stroke-miterlimit="8" fill="none" fill-rule="evenodd"/><path d="M411 176.5C411 174.567 412.567 173 414.5 173 416.433 173 418 174.567 418 176.5 418 178.433 416.433 180 414.5 180 412.567 180 411 178.433 411 176.5Z" stroke="#000000" stroke-width="2" stroke-miterlimit="8" fill="none" fill-rule="evenodd"/><path d="M411 202.5C411 200.567 412.567 199 414.5 199 416.433 199 418 200.567 418 202.5 418 204.433 416.433 206 414.5 206 412.567 206 411 204.433 411 202.5Z" stroke="#000000" stroke-width="2" stroke-miterlimit="8" fill="none" fill-rule="evenodd"/><path d="M411 227.5C411 225.567 412.567 224 414.5 224 416.433 224 418 225.567 418 227.5 418 229.433 416.433 231 414.5 231 412.567 231 411 229.433 411 227.5Z" stroke="#000000" stroke-width="2" stroke-miterlimit="8" fill="none" fill-rule="evenodd"/><path d="M411 254.5C411 252.567 412.567 251 414.5 251 416.433 251 418 252.567 418 254.5 418 256.433 416.433 258 414.5 258 412.567 258 411 256.433 411 254.5Z" stroke="#000000" stroke-width="2" stroke-miterlimit="8" fill="none" fill-rule="evenodd"/><path d="M411 280C411 278.343 412.567 277 414.5 277 416.433 277 418 278.343 418 280 418 281.657 416.433 283 414.5 283 412.567 283 411 281.657 411 280Z" stroke="#000000" stroke-width="2" stroke-miterlimit="8" fill="none" fill-rule="evenodd"/><path d="M481 458.5C481 456.567 482.343 455 484 455 485.657 455 487 456.567 487 458.5 487 460.433 485.657 462 484 462 482.343 462 481 460.433 481 458.5Z" stroke="#000000" stroke-width="2" stroke-miterlimit="8" fill="none" fill-rule="evenodd"/><path d="M797 30.5C797 28.567 798.567 27 800.5 27 802.433 27 804 28.567 804 30.5 804 32.433 802.433 34 800.5 34 798.567 34 797 32.433 797 30.5Z" stroke="#000000" stroke-width="2" stroke-miterlimit="8" fill="none" fill-rule="evenodd"/><path d="M546 493.5C546 491.567 547.567 490 549.5 490 551.433 490 553 491.567 553 493.5 553 495.433 551.433 497 549.5 497 547.567 497 546 495.433 546 493.5Z" stroke="#000000" stroke-width="2" stroke-miterlimit="8" fill="none" fill-rule="evenodd"/><path d="M747 19.5C747 17.567 748.567 16 750.5 16 752.433 16 754 17.567 754 19.5 754 21.433 752.433 23 750.5 23 748.567 23 747 21.433 747 19.5Z" stroke="#000000" stroke-width="2" stroke-miterlimit="8" fill="none" fill-rule="evenodd"/><path d="M747 30.5C747 28.567 748.567 27 750.5 27 752.433 27 754 28.567 754 30.5 754 32.433 752.433 34 750.5 34 748.567 34 747 32.433 747 30.5Z" stroke="#000000" stroke-width="2" stroke-miterlimit="8" fill="none" fill-rule="evenodd"/><path d="M747 40.5C747 38.567 748.567 37 750.5 37 752.433 37 754 38.567 754 40.5 754 42.433 752.433 44 750.5 44 748.567 44 747 42.433 747 40.5Z" stroke="#000000" stroke-width="2" stroke-miterlimit="8" fill="none" fill-rule="evenodd"/><path d="M755.171 8 775.586 8C786.86 8 796 18.0736 796 30.5 796 42.9264 786.86 53 775.586 53L755.171 52.9999C755.185 48.0155 755.198 43.0313 755.211 38.0469 755.191 33.1014 755.057 28.3342 755.05 23.3263 755.043 18.3185 754.884 27.7081 755.171 8Z" stroke="#000000" stroke-width="2" stroke-miterlimit="8" fill="none" fill-rule="evenodd"/><path d="M716 438.5C716 436.567 717.567 435 719.5 435 721.433 435 723 436.567 723 438.5 723 440.433 721.433 442 719.5 442 717.567 442 716 440.433 716 438.5Z" stroke="#000000" stroke-width="2" stroke-miterlimit="8" fill="none" fill-rule="evenodd"/><path d="M716 421.5C716 419.567 717.567 418 719.5 418 721.433 418 723 419.567 723 421.5 723 423.433 721.433 425 719.5 425 717.567 425 716 423.433 716 421.5Z" stroke="#000000" stroke-width="2" stroke-miterlimit="8" fill="none" fill-rule="evenodd"/><path d="M723.176 408 744.088 408C755.637 408 765 417.85 765 430 765 442.15 755.637 452 744.088 452L723.176 452C723.189 447.126 723.203 442.253 723.216 437.379 723.195 432.544 723.058 427.882 723.051 422.986 723.044 418.089 722.881 427.27 723.176 408Z" stroke="#000000" stroke-width="2" stroke-miterlimit="8" fill="none" fill-rule="evenodd"/><path d="M765 429.5C765 427.567 766.567 426 768.5 426 770.433 426 772 427.567 772 429.5 772 431.433 770.433 433 768.5 433 766.567 433 765 431.433 765 429.5Z" stroke="#000000" stroke-width="2" stroke-miterlimit="8" fill="none" fill-rule="evenodd"/><path d="M749 518.5C749 516.567 750.567 515 752.5 515 754.433 515 756 516.567 756 518.5 756 520.433 754.433 522 752.5 522 750.567 522 749 520.433 749 518.5Z" stroke="#000000" stroke-width="2" stroke-miterlimit="8" fill="none" fill-rule="evenodd"/><path d="M411 124.5C411 122.567 412.567 121 414.5 121 416.433 121 418 122.567 418 124.5 418 126.433 416.433 128 414.5 128 412.567 128 411 126.433 411 124.5Z" stroke="#000000" stroke-width="2" stroke-miterlimit="8" fill="none" fill-rule="evenodd"/><path d="M749 529.5C749 527.567 750.567 526 752.5 526 754.433 526 756 527.567 756 529.5 756 531.433 754.433 533 752.5 533 750.567 533 749 531.433 749 529.5Z" stroke="#000000" stroke-width="2" stroke-miterlimit="8" fill="none" fill-rule="evenodd"/><path d="M749 540.5C749 538.567 750.567 537 752.5 537 754.433 537 756 538.567 756 540.5 756 542.433 754.433 544 752.5 544 750.567 544 749 542.433 749 540.5Z" stroke="#000000" stroke-width="2" stroke-miterlimit="8" fill="none" fill-rule="evenodd"/><path d="M756.15 511 774.075 511C783.975 511 792 519.059 792 529 792 538.941 783.975 547 774.075 547L756.15 547C756.162 543.012 756.174 539.025 756.185 535.038 756.167 531.081 756.05 527.267 756.044 523.261 756.038 519.255 755.898 526.767 756.15 511Z" stroke="#000000" stroke-width="2" stroke-miterlimit="8" fill="none" fill-rule="evenodd"/><path d="M792 529.5C792 527.567 793.567 526 795.5 526 797.433 526 799 527.567 799 529.5 799 531.433 797.433 533 795.5 533 793.567 533 792 531.433 792 529.5Z" stroke="#000000" stroke-width="2" stroke-miterlimit="8" fill="none" fill-rule="evenodd"/><path d="M532 532.854 532 515.427C532 505.802 539.835 498 549.5 498 559.165 498 567 505.802 567 515.427L567 532.854C563.123 532.842 559.247 532.831 555.37 532.82 551.523 532.837 547.815 532.952 543.92 532.957 540.026 532.963 547.329 533.099 532 532.854Z" stroke="#000000" stroke-width="2" stroke-miterlimit="8" fill="none" fill-rule="evenodd"/><path d="M536 537.5C536 535.567 537.567 534 539.5 534 541.433 534 543 535.567 543 537.5 543 539.433 541.433 541 539.5 541 537.567 541 536 539.433 536 537.5Z" stroke="#000000" stroke-width="2" stroke-miterlimit="8" fill="none" fill-rule="evenodd"/><path d="M557 537.5C557 535.567 558.567 534 560.5 534 562.433 534 564 535.567 564 537.5 564 539.433 562.433 541 560.5 541 558.567 541 557 539.433 557 537.5Z" stroke="#000000" stroke-width="2" stroke-miterlimit="8" fill="none" fill-rule="evenodd"/></g></svg>