<svg width="1280" height="720" xmlns="http://www.w3.org/2000/svg" xmlns:xlink="http://www.w3.org/1999/xlink" overflow="hidden"><g><rect x="0" y="0" width="1280" height="720" fill="#FFFFFF"/><text font-family="DengXian,DengXian_MSFontService,sans-serif" font-weight="400" font-size="15" transform="translate(359.065 27)">add</text><text font-family="DengXian,DengXian_MSFontService,sans-serif" font-weight="400" font-size="15" transform="translate(360.065 52)">sub</text><text font-family="DengXian,DengXian_MSFontService,sans-serif" font-weight="400" font-size="15" transform="translate(359.315 78)">and</text><text font-family="DengXian,DengXian_MSFontService,sans-serif" font-weight="400" font-size="15" transform="translate(364.565 104)">or</text><text font-family="DengXian,DengXian_MSFontService,sans-serif" font-weight="400" font-size="15" transform="translate(361.315 130)">xor</text><text font-family="DengXian,DengXian_MSFontService,sans-serif" font-weight="400" font-size="15" transform="translate(364.232 155)">slt</text><text font-family="DengXian,DengXian_MSFontService,sans-serif" font-weight="400" font-size="15" transform="translate(360.232 181)">seq</text><text font-family="DengXian,DengXian_MSFontService,sans-serif" font-weight="400" font-size="15" transform="translate(361.648 207)">sgt</text><text font-family="DengXian,DengXian_MSFontService,sans-serif" font-weight="400" font-size="15" transform="translate(364.898 233)">sll</text><text font-family="DengXian,DengXian_MSFontService,sans-serif" font-weight="400" font-size="15" transform="translate(364.065 258)">srl</text><text font-family="DengXian,DengXian_MSFontService,sans-serif" font-weight="400" font-size="15" transform="translate(362.065 284)">sra</text><text font-family="DengXian,DengXian_MSFontService,sans-serif" font-weight="400" font-size="15" transform="translate(367.065 310)">jr</text><text font-family="DengXian,DengXian_MSFontService,sans-serif" font-weight="400" font-size="15" transform="translate(357.398 336)">addi</text><text font-family="DengXian,DengXian_MSFontService,sans-serif" font-weight="400" font-size="15" transform="translate(358.398 361)">subi</text><text font-family="DengXian,DengXian_MSFontService,sans-serif" font-weight="400" font-size="15" transform="translate(357.648 387)">andi</text><text font-family="DengXian,DengXian_MSFontService,sans-serif" font-weight="400" font-size="15" transform="translate(362.898 413)">ori</text><text font-family="DengXian,DengXian_MSFontService,sans-serif" font-weight="400" font-size="15" transform="translate(359.648 439)">xori</text><text font-family="DengXian,DengXian_MSFontService,sans-serif" font-weight="400" font-size="15" transform="translate(362.565 464)">slti</text><text font-family="DengXian,DengXian_MSFontService,sans-serif" font-weight="400" font-size="15" transform="translate(358.565 490)">seqi</text><text font-family="DengXian,DengXian_MSFontService,sans-serif" font-weight="400" font-size="15" transform="translate(359.982 516)">sgti</text><text font-family="DengXian,DengXian_MSFontService,sans-serif" font-weight="400" font-size="15" transform="translate(363.232 542)">slli</text><text font-family="DengXian,DengXian_MSFontService,sans-serif" font-weight="400" font-size="15" transform="translate(362.398 567)">srli</text><text font-family="DengXian,DengXian_MSFontService,sans-serif" font-weight="400" font-size="15" transform="translate(360.398 593)">srai</text><text font-family="DengXian,DengXian_MSFontService,sans-serif" font-weight="400" font-size="15" transform="translate(364.398 619)">lw</text><text font-family="DengXian,DengXian_MSFontService,sans-serif" font-weight="400" font-size="15" transform="translate(363.065 645)">sw</text><text font-family="DengXian,DengXian_MSFontService,sans-serif" font-weight="400" font-size="15" transform="translate(359.065 670)">beq</text><text font-family="DengXian,DengXian_MSFontService,sans-serif" font-weight="400" font-size="15" transform="translate(369.565 696)">j</text><path d="M389.026 48.1109 410.893 48.1109" stroke="#000000" stroke-width="1.33333" stroke-linejoin="round" stroke-miterlimit="10" fill="none" fill-rule="evenodd"/><path d="M389.026 73.8117 410.893 73.8117" stroke="#000000" stroke-width="1.33333" stroke-linejoin="round" stroke-miterlimit="10" fill="none" fill-rule="evenodd"/><path d="M389.026 99.5124 410.893 99.5124" stroke="#000000" stroke-width="1.33333" stroke-linejoin="round" stroke-miterlimit="10" fill="none" fill-rule="evenodd"/><path d="M389.026 125.213 410.893 125.213" stroke="#000000" stroke-width="1.33333" stroke-linejoin="round" stroke-miterlimit="10" fill="none" fill-rule="evenodd"/><path d="M389.026 150.914 410.893 150.914" stroke="#000000" stroke-width="1.33333" stroke-linejoin="round" stroke-miterlimit="10" fill="none" fill-rule="evenodd"/><path d="M389.026 176.615 410.893 176.615" stroke="#000000" stroke-width="1.33333" stroke-linejoin="round" stroke-miterlimit="10" fill="none" fill-rule="evenodd"/><path d="M389.026 202.316 410.893 202.316" stroke="#000000" stroke-width="1.33333" stroke-linejoin="round" stroke-miterlimit="10" fill="none" fill-rule="evenodd"/><path d="M389.026 228.016 410.893 228.016" stroke="#000000" stroke-width="1.33333" stroke-linejoin="round" stroke-miterlimit="10" fill="none" fill-rule="evenodd"/><path d="M389.026 253.717 410.893 253.717" stroke="#000000" stroke-width="1.33333" stroke-linejoin="round" stroke-miterlimit="10" fill="none" fill-rule="evenodd"/><path d="M389.026 22.4101 410.893 22.4101" stroke="#000000" stroke-width="1.33333" stroke-linejoin="round" stroke-miterlimit="10" fill="none" fill-rule="evenodd"/><path d="M389.026 279.418 410.893 279.418" stroke="#000000" stroke-width="1.33333" stroke-linejoin="round" stroke-miterlimit="10" fill="none" fill-rule="evenodd"/><path d="M389.134 356.402 411.001 356.402" stroke="#000000" stroke-width="1.33333" stroke-linejoin="round" stroke-miterlimit="10" fill="none" fill-rule="evenodd"/><path d="M389.134 382.102 411.001 382.102" stroke="#000000" stroke-width="1.33333" stroke-linejoin="round" stroke-miterlimit="10" fill="none" fill-rule="evenodd"/><path d="M389.134 407.803 411.001 407.803" stroke="#000000" stroke-width="1.33333" stroke-linejoin="round" stroke-miterlimit="10" fill="none" fill-rule="evenodd"/><path d="M389.134 433.504 411.001 433.504" stroke="#000000" stroke-width="1.33333" stroke-linejoin="round" stroke-miterlimit="10" fill="none" fill-rule="evenodd"/><path d="M389.134 459.205 411.001 459.205" stroke="#000000" stroke-width="1.33333" stroke-linejoin="round" stroke-miterlimit="10" fill="none" fill-rule="evenodd"/><path d="M389.134 484.906 411.001 484.906" stroke="#000000" stroke-width="1.33333" stroke-linejoin="round" stroke-miterlimit="10" fill="none" fill-rule="evenodd"/><path d="M389.134 510.606 411.001 510.606" stroke="#000000" stroke-width="1.33333" stroke-linejoin="round" stroke-miterlimit="10" fill="none" fill-rule="evenodd"/><path d="M389.134 536.307 411.001 536.307" stroke="#000000" stroke-width="1.33333" stroke-linejoin="round" stroke-miterlimit="10" fill="none" fill-rule="evenodd"/><path d="M389.134 562.008 411.001 562.008" stroke="#000000" stroke-width="1.33333" stroke-linejoin="round" stroke-miterlimit="10" fill="none" fill-rule="evenodd"/><path d="M389.134 330.701 411.001 330.701" stroke="#000000" stroke-width="1.33333" stroke-linejoin="round" stroke-miterlimit="10" fill="none" fill-rule="evenodd"/><path d="M389.134 587.709 411.001 587.709" stroke="#000000" stroke-width="1.33333" stroke-linejoin="round" stroke-miterlimit="10" fill="none" fill-rule="evenodd"/><path d="M754.81 8.80171C766.239 20.1967 765.593 39.3749 753.368 51.6373" stroke="#000000" stroke-width="2" stroke-miterlimit="8" fill="none" fill-rule="evenodd"/><path d="M754.5 9C770.844 9 786.325 16.8731 796.676 30.4493" stroke="#000000" stroke-width="2" stroke-miterlimit="8" fill="none" fill-rule="evenodd"/><path d="M796.825 29.3549C786.31 43.268 770.435 51.2422 753.746 50.9944" stroke="#000000" stroke-width="2" stroke-miterlimit="8" fill="none" fill-rule="evenodd"/><rect x="412" y="11" width="69" height="278" stroke="#000000" stroke-width="2" stroke-miterlimit="8" fill="none"/><text font-family="DengXian,DengXian_MSFontService,sans-serif" font-weight="400" font-size="24" transform="translate(427.768 158)">≥</text><text font-family="DengXian,DengXian_MSFontService,sans-serif" font-weight="400" font-size="24" transform="translate(451.768 158)">1</text><rect x="412" y="323" width="68" height="273" stroke="#000000" stroke-width="2" stroke-miterlimit="8" fill="none"/><text font-family="DengXian,DengXian_MSFontService,sans-serif" font-weight="400" font-size="24" transform="translate(427.666 467)">≥</text><text font-family="DengXian,DengXian_MSFontService,sans-serif" font-weight="400" font-size="24" transform="translate(451.666 467)">1</text><path d="M0 0 23.892 0 23.892 130.591 280.588 130.591" stroke="#000000" stroke-width="2" stroke-miterlimit="8" fill="none" fill-rule="evenodd" transform="matrix(1 0 0 -1 481 149.591)"/><path d="M0 0 31.541 0 31.541 429.918" stroke="#000000" stroke-width="2" stroke-miterlimit="8" fill="none" fill-rule="evenodd" transform="matrix(1 0 0 -1 480 459.918)"/><path d="M389 616 830.812 616" stroke="#000000" stroke-width="2" stroke-miterlimit="8" fill="none" fill-rule="evenodd"/><path d="M511 30 762.732 30.0001" stroke="#000000" stroke-width="2" stroke-miterlimit="8" fill="none" fill-rule="evenodd"/><path d="M760.686 40.9999 760.686 41.0512 519 41.0512 519 612.306" stroke="#000000" stroke-width="2" stroke-miterlimit="8" fill="none" fill-rule="evenodd"/><path d="M796 30 828.444 30.0001" stroke="#000000" stroke-width="2" stroke-miterlimit="8" fill="none" fill-rule="evenodd"/><text font-family="DengXian,DengXian_MSFontService,sans-serif" font-weight="400" font-size="19" transform="translate(838.535 35)">RegWrite</text><path d="M723 83.9999 761 104.5 723 125Z" stroke="#000000" stroke-width="2" stroke-miterlimit="8" fill="none" fill-rule="evenodd"/><path d="M723 151 761 171.5 723 192Z" stroke="#000000" stroke-width="2" stroke-miterlimit="8" fill="none" fill-rule="evenodd"/><path d="M723 217 761 237.5 723 258Z" stroke="#000000" stroke-width="2" stroke-miterlimit="8" fill="none" fill-rule="evenodd"/><path d="M723 281 761 302 723 323Z" stroke="#000000" stroke-width="2" stroke-miterlimit="8" fill="none" fill-rule="evenodd"/><path d="M687 104 722.778 104" stroke="#000000" stroke-width="4" stroke-miterlimit="8" fill="none" fill-rule="evenodd"/><path d="M687 171 722.778 171" stroke="#000000" stroke-width="4" stroke-miterlimit="8" fill="none" fill-rule="evenodd"/><path d="M687 237 722.778 237" stroke="#000000" stroke-width="4" stroke-miterlimit="8" fill="none" fill-rule="evenodd"/><path d="M687 301 722.778 301" stroke="#000000" stroke-width="4" stroke-miterlimit="8" fill="none" fill-rule="evenodd"/><text font-family="DengXian,DengXian_MSFontService,sans-serif" font-weight="400" font-size="19" transform="translate(611.428 107)">func[3:0]</text><text font-family="DengXian,DengXian_MSFontService,sans-serif" font-weight="400" font-size="19" transform="translate(624.524 174)">op[3:0]</text><text font-family="DengXian,DengXian_MSFontService,sans-serif" font-weight="400" font-size="19" transform="translate(640.398 306)">1010</text><text font-family="DengXian,DengXian_MSFontService,sans-serif" font-weight="400" font-size="19" transform="translate(641.473 243)">0001</text><path d="M0 0 27.3076 0 27.3076 234.07" stroke="#000000" stroke-width="2" stroke-miterlimit="8" fill="none" fill-rule="evenodd" transform="matrix(-1.83697e-16 -1 -1 1.83697e-16 742.069 94.3077)"/><path d="M501 67C501 65.3431 502.567 64 504.5 64 506.433 64 508 65.3431 508 67 508 68.6569 506.433 70 504.5 70 502.567 70 501 68.6569 501 67Z" stroke="#000000" stroke-width="2" stroke-miterlimit="8" fill-rule="evenodd"/><path d="M0 0 23.6481 0 23.6481 226.669" stroke="#000000" stroke-width="2" stroke-miterlimit="8" fill="none" fill-rule="evenodd" transform="matrix(-1.83697e-16 -1 -1 1.83697e-16 741.669 160.648)"/><path d="M508 137.5C508 135.567 509.567 134 511.5 134 513.433 134 515 135.567 515 137.5 515 139.433 513.433 141 511.5 141 509.567 141 508 139.433 508 137.5Z" stroke="#000000" stroke-width="2" stroke-miterlimit="8" fill-rule="evenodd"/><path d="M389 640 830.812 640" stroke="#000000" stroke-width="2" stroke-miterlimit="8" fill="none" fill-rule="evenodd"/><path d="M516 615.5C516 613.567 517.567 612 519.5 612 521.433 612 523 613.567 523 615.5 523 617.433 521.433 619 519.5 619 517.567 619 516 617.433 516 615.5Z" stroke="#000000" stroke-width="2" stroke-miterlimit="8" fill-rule="evenodd"/><path d="M528.499 531.372C539.894 519.943 559.072 520.588 571.335 532.814" stroke="#000000" stroke-width="2" stroke-miterlimit="8" fill="none" fill-rule="evenodd"/><path d="M528 531.5C528 515.156 535.873 499.675 549.449 489.324" stroke="#000000" stroke-width="2" stroke-miterlimit="8" fill="none" fill-rule="evenodd"/><path d="M549.355 489.175C563.268 499.69 571.242 515.565 570.994 532.254" stroke="#000000" stroke-width="2" stroke-miterlimit="8" fill="none" fill-rule="evenodd"/><path d="M540.053 612.213 540 525" stroke="#000000" stroke-width="2" stroke-miterlimit="8" fill="none" fill-rule="evenodd"/><path d="M0 0 0.000104987 110.497" stroke="#000000" stroke-width="2" stroke-miterlimit="8" fill="none" fill-rule="evenodd" transform="matrix(1 0 0 -1 561 636.497)"/><path d="M537 615.5C537 613.567 538.343 612 540 612 541.657 612 543 613.567 543 615.5 543 617.433 541.657 619 540 619 538.343 619 537 617.433 537 615.5Z" stroke="#000000" stroke-width="2" stroke-miterlimit="8" fill-rule="evenodd"/><path d="M557 640.5C557 638.567 558.567 637 560.5 637 562.433 637 564 638.567 564 640.5 564 642.433 562.433 644 560.5 644 558.567 644 557 642.433 557 640.5Z" stroke="#000000" stroke-width="2" stroke-miterlimit="8" fill-rule="evenodd"/><path d="M741.599 227 741.599 204.916 549.487 204.916 549.487 489.191 549 489.191" stroke="#000000" stroke-width="2" stroke-miterlimit="8" fill="none" fill-rule="evenodd"/><path d="M389 668 830.279 668" stroke="#000000" stroke-width="2" stroke-miterlimit="8" fill="none" fill-rule="evenodd"/><path d="M577 667.5C577 665.567 578.567 664 580.5 664 582.433 664 584 665.567 584 667.5 584 669.433 582.433 671 580.5 671 578.567 671 577 669.433 577 667.5Z" stroke="#000000" stroke-width="2" stroke-miterlimit="8" fill-rule="evenodd"/><path d="M742.308 291 742.308 270.038 581 270.038 581 663.469" stroke="#000000" stroke-width="2" stroke-miterlimit="8" fill="none" fill-rule="evenodd"/><path d="M761 105 784.718 105" stroke="#000000" stroke-width="4" stroke-miterlimit="8" fill="none" fill-rule="evenodd"/><path d="M761 171 780.904 171.13" stroke="#000000" stroke-width="4" stroke-miterlimit="8" fill="none" fill-rule="evenodd"/><path d="M761 238 780.904 238.083" stroke="#000000" stroke-width="4" stroke-miterlimit="8" fill="none" fill-rule="evenodd"/><path d="M761 302 784.718 302" stroke="#000000" stroke-width="4" stroke-miterlimit="8" fill="none" fill-rule="evenodd"/><path d="M785 102 785 304" stroke="#000000" stroke-width="4" stroke-miterlimit="8" fill="none" fill-rule="evenodd"/><path d="M789 204 830.129 204" stroke="#000000" stroke-width="4" stroke-miterlimit="8" fill="none" fill-rule="evenodd"/><text font-family="DengXian,DengXian_MSFontService,sans-serif" font-weight="400" font-size="19" transform="translate(838.278 209)">AluOp</text><path d="M781 171.5C781 169.567 782.791 168 785 168 787.209 168 789 169.567 789 171.5 789 173.433 787.209 175 785 175 782.791 175 781 173.433 781 171.5Z" stroke="#000000" stroke-width="2" stroke-miterlimit="8" fill-rule="evenodd"/><path d="M781 238C781 235.791 782.791 234 785 234 787.209 234 789 235.791 789 238 789 240.209 787.209 242 785 242 782.791 242 781 240.209 781 238Z" stroke="#000000" stroke-width="2" stroke-miterlimit="8" fill-rule="evenodd"/><path d="M781 204.5C781 202.567 782.791 201 785 201 787.209 201 789 202.567 789 204.5 789 206.433 787.209 208 785 208 782.791 208 781 206.433 781 204.5Z" stroke="#000000" stroke-width="2" stroke-miterlimit="8" fill-rule="evenodd"/><path d="M730.844 409.33C742.273 420.725 741.627 439.904 729.401 452.166" stroke="#000000" stroke-width="2" stroke-miterlimit="8" fill="none" fill-rule="evenodd"/><path d="M730.5 409C746.844 409 762.325 416.873 772.676 430.449" stroke="#000000" stroke-width="2" stroke-miterlimit="8" fill="none" fill-rule="evenodd"/><path d="M772.825 430.355C762.31 444.268 746.435 452.242 729.746 451.994" stroke="#000000" stroke-width="2" stroke-miterlimit="8" fill="none" fill-rule="evenodd"/><path d="M509 422C509 420.343 510.343 419 512 419 513.657 419 515 420.343 515 422 515 423.657 513.657 425 512 425 510.343 425 509 423.657 509 422Z" stroke="#000000" stroke-width="2" stroke-miterlimit="8" fill-rule="evenodd"/><path d="M546 439.5C546 437.567 547.567 436 549.5 436 551.433 436 553 437.567 553 439.5 553 441.433 551.433 443 549.5 443 547.567 443 546 441.433 546 439.5Z" stroke="#000000" stroke-width="2" stroke-miterlimit="8" fill-rule="evenodd"/><path d="M515 422 737.583 422" stroke="#000000" stroke-width="2" stroke-miterlimit="8" fill="none" fill-rule="evenodd"/><path d="M553 440 737.708 440" stroke="#000000" stroke-width="2" stroke-miterlimit="8" fill="none" fill-rule="evenodd"/><path d="M773 430 828.159 430" stroke="#000000" stroke-width="2" stroke-miterlimit="8" fill="none" fill-rule="evenodd"/><text font-family="DengXian,DengXian_MSFontService,sans-serif" font-weight="400" font-size="19" transform="translate(837.804 435)">Imm</text><text font-family="DengXian,DengXian_MSFontService,sans-serif" font-weight="400" font-size="19" transform="translate(837.43 371)">RegBranch</text><text font-family="DengXian,DengXian_MSFontService,sans-serif" font-weight="400" font-size="19" transform="translate(837.643 672)">NearBranch</text><path d="M389 693 830.279 693" stroke="#000000" stroke-width="2" stroke-miterlimit="8" fill="none" fill-rule="evenodd"/><text font-family="DengXian,DengXian_MSFontService,sans-serif" font-weight="400" font-size="19" transform="translate(837.146 697)">AbsBranch</text><text font-family="DengXian,DengXian_MSFontService,sans-serif" font-weight="400" font-size="19" transform="translate(837.325 619)">MemRead</text><text font-family="DengXian,DengXian_MSFontService,sans-serif" font-weight="400" font-size="19" transform="translate(837.987 646)">MemWrite</text><path d="M743.456 509.458C754.885 520.853 754.24 540.031 742.014 552.293" stroke="#000000" stroke-width="2" stroke-miterlimit="8" fill="none" fill-rule="evenodd"/><path d="M742.5 509C758.844 509 774.325 516.873 784.676 530.449" stroke="#000000" stroke-width="2" stroke-miterlimit="8" fill="none" fill-rule="evenodd"/><path d="M784.825 530.355C774.31 544.268 758.435 552.242 741.746 551.994" stroke="#000000" stroke-width="2" stroke-miterlimit="8" fill="none" fill-rule="evenodd"/><text font-family="DengXian,DengXian_MSFontService,sans-serif" font-weight="400" font-size="19" transform="translate(677.196 504)">sll</text><text font-family="DengXian,DengXian_MSFontService,sans-serif" font-weight="400" font-size="19" transform="translate(676.112 536)">srl</text><text font-family="DengXian,DengXian_MSFontService,sans-serif" font-weight="400" font-size="19" transform="translate(673.529 568)">sra</text><path d="M785 530 828.68 530" stroke="#000000" stroke-width="2" stroke-miterlimit="8" fill="none" fill-rule="evenodd"/><text font-family="DengXian,DengXian_MSFontService,sans-serif" font-weight="400" font-size="19" transform="translate(838.278 532)">Shift</text><path d="M703 530 751.077 530" stroke="#000000" stroke-width="2" stroke-miterlimit="8" fill="none" fill-rule="evenodd"/><path d="M703 498 718.739 498 718.739 518.2 748.877 518.2" stroke="#000000" stroke-width="2" stroke-miterlimit="8" fill="none" fill-rule="evenodd"/><path d="M0 0 14.8386 0 14.8386 22.5591 46.077 22.5591" stroke="#000000" stroke-width="2" stroke-miterlimit="8" fill="none" fill-rule="evenodd" transform="matrix(1 0 0 -1 703 562.559)"/><path d="M389 305 608.954 305 608.954 367.026 828.909 367.026" stroke="#000000" stroke-width="2" stroke-miterlimit="8" fill="none" fill-rule="evenodd"/></g></svg>