<svg width="1280" height="720" xmlns="http://www.w3.org/2000/svg" xmlns:xlink="http://www.w3.org/1999/xlink" overflow="hidden"><g><rect x="0" y="0" width="1280" height="720" fill="#FFFFFF"/><rect x="69" y="33" width="1178" height="568" stroke="#000000" stroke-width="2" stroke-miterlimit="8" fill="none"/><text font-family="DengXian,DengXian_MSFontService,sans-serif" font-weight="400" font-size="19" transform="translate(561.326 623)">AluOp</text><text font-family="DengXian,DengXian_MSFontService,sans-serif" font-weight="400" font-size="19" transform="translate(414.329 623)">RegWrite</text><text font-family="DengXian,DengXian_MSFontService,sans-serif" font-weight="400" font-size="24" transform="translate(23.3417 144)">op</text><text font-family="DengXian,DengXian_MSFontService,sans-serif" font-weight="400" font-size="24" transform="translate(10.4701 455)">func</text><path d="M69 138 373.268 138" stroke="#000000" stroke-width="8" stroke-miterlimit="8" fill="none" fill-rule="evenodd"/><path d="M69 448 167.794 448" stroke="#000000" stroke-width="8" stroke-miterlimit="8" fill="none" fill-rule="evenodd"/><rect x="190" y="170" width="79" height="33" stroke="#000000" stroke-width="2" stroke-miterlimit="8" fill="none"/><text font-family="DengXian,DengXian_MSFontService,sans-serif" font-weight="400" font-size="24" transform="translate(78.2452 120)">[5:0]</text><text font-family="DengXian,DengXian_MSFontService,sans-serif" font-weight="400" font-size="24" transform="translate(78.2452 430)">[5:0]</text><text font-family="DengXian,DengXian_MSFontService,sans-serif" font-weight="400" font-size="19" transform="translate(199.446 194)">全为</text><text font-family="DengXian,DengXian_MSFontService,sans-serif" font-weight="400" font-size="19" transform="translate(236.779 194)">0</text><text font-family="DengXian,DengXian_MSFontService,sans-serif" font-weight="400" font-size="19" transform="translate(246.613 194)">？</text><path d="M167 342 167 539.446" stroke="#000000" stroke-width="2" stroke-linecap="square" stroke-miterlimit="8" stroke-dasharray="6 2" fill="none" fill-rule="evenodd"/><path d="M165 536 515.02 536" stroke="#000000" stroke-width="4" stroke-miterlimit="8" fill="none" fill-rule="evenodd"/><text font-family="DengXian,DengXian_MSFontService,sans-serif" font-weight="400" font-size="19" transform="translate(170.673 332)">[5]</text><text font-family="DengXian,DengXian_MSFontService,sans-serif" font-weight="400" font-size="19" transform="translate(172.694 522)">[3:0]</text><path d="M515 515 554 535.5 515 556Z" stroke="#000000" stroke-width="2" stroke-miterlimit="8" fill="none" fill-rule="evenodd"/><path d="M554 536 587.619 536 587.619 601.167" stroke="#000000" stroke-width="4" stroke-miterlimit="8" fill="none" fill-rule="evenodd"/><path d="M269 187 346.761 187 346.761 470.274" stroke="#000000" stroke-width="2" stroke-miterlimit="8" fill="none" fill-rule="evenodd"/><path d="M0 0 0.234751 91.1659" stroke="#000000" stroke-width="2" stroke-miterlimit="8" fill="none" fill-rule="evenodd" transform="matrix(-1 0 0 1 534.235 434)"/><path d="M166 342 259.981 342" stroke="#000000" stroke-width="2" stroke-miterlimit="8" fill="none" fill-rule="evenodd"/><path d="M166 360 259.981 360" stroke="#000000" stroke-width="2" stroke-miterlimit="8" fill="none" fill-rule="evenodd"/><text font-family="DengXian,DengXian_MSFontService,sans-serif" font-weight="400" font-size="19" transform="translate(171.238 377)">[4]</text><path d="M296 349.5C296 347.015 298.015 345 300.5 345 302.985 345 305 347.015 305 349.5 305 351.985 302.985 354 300.5 354 298.015 354 296 351.985 296 349.5Z" stroke="#000000" stroke-width="2" stroke-miterlimit="8" fill="none" fill-rule="evenodd"/><path d="M351 335 432.503 335 432.503 334.99 541.955 334.99 541.955 392.589" stroke="#000000" stroke-width="2" stroke-miterlimit="8" fill="none" fill-rule="evenodd"/><path d="M0 0 0.144329 0 0.144329 27.4675 65.8882 27.4675" stroke="#000000" stroke-width="2" stroke-miterlimit="8" fill="none" fill-rule="evenodd" transform="matrix(1 0 0 -1 465 475.467)"/><path d="M531 447.5C531 445.567 532.567 444 534.5 444 536.433 444 538 445.567 538 447.5 538 449.433 536.433 451 534.5 451 532.567 451 531 449.433 531 447.5Z" stroke="#000000" stroke-width="2" stroke-miterlimit="8" fill-rule="evenodd"/><path d="M581 536C581 532.686 583.686 530 587 530 590.314 530 593 532.686 593 536 593 539.314 590.314 542 587 542 583.686 542 581 539.314 581 536Z" stroke="#000000" stroke-width="2" stroke-miterlimit="8" fill-rule="evenodd"/><path d="M132 448.5C132 443.806 135.806 440 140.5 440 145.194 440 149 443.806 149 448.5 149 453.194 145.194 457 140.5 457 135.806 457 132 453.194 132 448.5Z" stroke="#000000" stroke-width="2" stroke-miterlimit="8" fill-rule="evenodd"/><path d="M260 435 260 435" stroke="#156082" stroke-width="2" stroke-miterlimit="8" fill="none" fill-rule="evenodd"/><path d="M294 415 332.073 415 332.073 469.262" stroke="#000000" stroke-width="2" stroke-miterlimit="8" fill="none" fill-rule="evenodd"/><text font-family="DengXian,DengXian_MSFontService,sans-serif" font-weight="400" font-size="19" transform="translate(297.298 623)">RegBranch</text><text font-family="DengXian,DengXian_MSFontService,sans-serif" font-weight="400" font-size="19" transform="translate(718.02 623)">Shift</text><rect x="615" y="518" width="64" height="35" stroke="#000000" stroke-width="2" stroke-miterlimit="8" fill="none"/><text font-family="DengXian,DengXian_MSFontService,sans-serif" font-weight="400" font-size="19" transform="translate(624.502 542)">移位？</text><path d="M593 536 614.59 536" stroke="#000000" stroke-width="4" stroke-miterlimit="8" fill="none" fill-rule="evenodd"/><path d="M679.176 462 700.088 462C711.637 462 721 471.85 721 484 721 496.15 711.637 506 700.088 506L679.176 506C679.189 501.126 679.203 496.253 679.216 491.379 679.195 486.544 679.058 481.882 679.051 476.986 679.044 472.089 678.881 481.27 679.176 462Z" stroke="#000000" stroke-width="2" stroke-miterlimit="8" fill="none" fill-rule="evenodd"/><path d="M721 484 736.482 484 736.482 601.032" stroke="#000000" stroke-width="2" stroke-miterlimit="8" fill="none" fill-rule="evenodd"/><path d="M538 477 679.029 477.177" stroke="#000000" stroke-width="2" stroke-miterlimit="8" fill="none" fill-rule="evenodd"/><path d="M647 517.993 647 511.819 647.16 511.819 647.16 491 679.16 491" stroke="#000000" stroke-width="2" stroke-miterlimit="8" fill="none" fill-rule="evenodd"/><rect x="191" y="399" width="103" height="32" stroke="#000000" stroke-width="2" stroke-miterlimit="8" fill="none"/><text font-family="DengXian,DengXian_MSFontService,sans-serif" font-weight="400" font-size="19" transform="translate(198.919 421)">为</text><text font-family="DengXian,DengXian_MSFontService,sans-serif" font-weight="400" font-size="19" transform="translate(217.585 421)">010000</text><text font-family="DengXian,DengXian_MSFontService,sans-serif" font-weight="400" font-size="19" transform="translate(276.585 421)">？</text><path d="M141 439.173 141 415 191.592 415" stroke="#000000" stroke-width="8" stroke-miterlimit="8" fill="none" fill-rule="evenodd"/><path d="M361 470 361 489.5C361 500.27 351.822 509 340.5 509 329.178 509 320 500.27 320 489.5L320 470Z" stroke="#000000" stroke-width="2" stroke-miterlimit="8" fill="none" fill-rule="evenodd"/><path d="M341 509 341.186 600.525" stroke="#000000" stroke-width="2" stroke-miterlimit="8" fill="none" fill-rule="evenodd"/><path d="M253.349 328.71C264.779 340.105 264.133 359.284 251.907 371.546" stroke="#000000" stroke-width="2" stroke-miterlimit="8" fill="none" fill-rule="evenodd"/><path d="M252.5 329C268.763 329 284.177 336.73 294.53 350.077" stroke="#000000" stroke-width="2" stroke-miterlimit="8" fill="none" fill-rule="evenodd"/><path d="M294.825 349.355C284.31 363.268 268.435 371.242 251.746 370.994" stroke="#000000" stroke-width="2" stroke-miterlimit="8" fill="none" fill-rule="evenodd"/><path d="M132 138C132 133.029 135.806 129 140.5 129 145.194 129 149 133.029 149 138 149 142.971 145.194 147 140.5 147 135.806 147 132 142.971 132 138Z" stroke="#000000" stroke-width="2" stroke-miterlimit="8" fill-rule="evenodd"/><path d="M0 0 39.7923 0 39.7923 49.219" stroke="#000000" stroke-width="8" stroke-miterlimit="8" fill="none" fill-rule="evenodd" transform="matrix(1.83697e-16 1 1 -1.83697e-16 141 147)"/><path d="M531 476.5C531 474.567 532.567 473 534.5 473 536.433 473 538 474.567 538 476.5 538 478.433 536.433 480 534.5 480 532.567 480 531 478.433 531 476.5Z" stroke="#000000" stroke-width="2" stroke-miterlimit="8" fill-rule="evenodd"/><path d="M557 392.176 557 413.088C557 424.637 547.15 434 535 434 522.85 434 513 424.637 513 413.088L513 392.176C517.874 392.189 522.747 392.203 527.621 392.216 532.456 392.195 537.118 392.058 542.014 392.051 546.911 392.044 537.73 391.881 557 392.176Z" stroke="#000000" stroke-width="2" stroke-miterlimit="8" fill="none" fill-rule="evenodd"/><path d="M305 350 409.588 350 409.588 349.984 527.707 349.984 527.707 392.784" stroke="#000000" stroke-width="2" stroke-miterlimit="8" fill="none" fill-rule="evenodd"/><path d="M344 334.5C344 332.567 345.567 331 347.5 331 349.433 331 351 332.567 351 334.5 351 336.433 349.433 338 347.5 338 345.567 338 344 336.433 344 334.5Z" stroke="#000000" stroke-width="2" stroke-miterlimit="8" fill-rule="evenodd"/><path d="M373 88 373 172.208" stroke="#000000" stroke-width="2" stroke-linecap="square" stroke-miterlimit="8" stroke-dasharray="6 2" fill="none" fill-rule="evenodd"/><path d="M412 125 412 73.9999 428 58 444 58 444 58 444 141 444 141 428 141Z" stroke="#042433" stroke-width="2" stroke-miterlimit="8" fill="none" fill-rule="evenodd"/><text font-family="DengXian,DengXian_MSFontService,sans-serif" font-weight="400" font-size="19" transform="translate(378.264 78)">[5]</text><path d="M373 89 412.623 89.0001" stroke="#000000" stroke-width="2" stroke-miterlimit="8" fill="none" fill-rule="evenodd"/><path d="M373 102 411.823 102" stroke="#000000" stroke-width="2" stroke-miterlimit="8" fill="none" fill-rule="evenodd"/><text font-family="DengXian,DengXian_MSFontService,sans-serif" font-weight="400" font-size="19" transform="translate(378.546 119)">[4]</text><text font-family="DengXian,DengXian_MSFontService,sans-serif" font-weight="700" font-size="16" transform="translate(413.491 105)">a</text><text font-family="DengXian,DengXian_MSFontService,sans-serif" font-weight="700" font-size="11" transform="translate(421.824 108)">0</text><text font-family="DengXian,DengXian_MSFontService,sans-serif" font-weight="700" font-size="16" transform="translate(413.836 92)">a</text><text font-family="DengXian,DengXian_MSFontService,sans-serif" font-weight="700" font-size="11" transform="translate(422.17 95)">1</text><text font-family="DengXian,DengXian_MSFontService,sans-serif" font-weight="700" font-size="15" transform="translate(431.873 74)">0</text><text font-family="DengXian,DengXian_MSFontService,sans-serif" font-weight="700" font-size="15" transform="translate(431.873 93)">1</text><text font-family="DengXian,DengXian_MSFontService,sans-serif" font-weight="700" font-size="15" transform="translate(431.872 115)">2</text><text font-family="DengXian,DengXian_MSFontService,sans-serif" font-weight="700" font-size="15" transform="translate(431.872 136)">3</text><text font-family="DengXian,DengXian_MSFontService,sans-serif" font-weight="400" font-size="19" transform="translate(377.983 157)">[3:0]</text><path d="M607 244 586.5 283 566 244Z" stroke="#000000" stroke-width="2" stroke-miterlimit="8" fill="none" fill-rule="evenodd"/><path d="M0 0 73.5787 0 73.5787 213.639" stroke="#000000" stroke-width="4" stroke-miterlimit="8" fill="none" fill-rule="evenodd" transform="matrix(-1.83697e-16 -1 -1 1.83697e-16 586.639 243.579)"/><path d="M586 283 586.531 529.899" stroke="#000000" stroke-width="4" stroke-miterlimit="8" fill="none" fill-rule="evenodd"/><path d="M482.176 241 503.088 241C514.637 241 524 251.074 524 263.5 524 275.926 514.637 286 503.088 286L482.176 286C482.189 281.016 482.203 276.031 482.216 271.047 482.195 266.101 482.058 261.334 482.051 256.326 482.044 251.319 481.881 260.708 482.176 241Z" stroke="#000000" stroke-width="2" stroke-miterlimit="8" fill="none" fill-rule="evenodd"/><path d="M0 0 52.1201 0.203255" stroke="#000000" stroke-width="2" stroke-miterlimit="8" fill="none" fill-rule="evenodd" transform="matrix(1 0 0 -1 524 263.203)"/><path d="M406 255 436 271 406 287Z" stroke="#000000" stroke-width="2" stroke-miterlimit="8" fill="none" fill-rule="evenodd"/><path d="M437 271.5C437 269.015 439.015 267 441.5 267 443.985 267 446 269.015 446 271.5 446 273.985 443.985 276 441.5 276 439.015 276 437 273.985 437 271.5Z" stroke="#000000" stroke-width="2" stroke-miterlimit="8" fill="none" fill-rule="evenodd"/><path d="M0 0 36.0524 0.257743" stroke="#000000" stroke-width="2" stroke-miterlimit="8" fill="none" fill-rule="evenodd" transform="matrix(1 0 0 -1 446 271.258)"/><path d="M344 271C344 269.343 345.567 268 347.5 268 349.433 268 351 269.343 351 271 351 272.657 349.433 274 347.5 274 345.567 274 344 272.657 344 271Z" stroke="#000000" stroke-width="2" stroke-miterlimit="8" fill-rule="evenodd"/><path d="M351 271 406.284 271.058" stroke="#000000" stroke-width="2" stroke-miterlimit="8" fill="none" fill-rule="evenodd"/><path d="M0 0-1.76972 0-1.76972 18.1699 187.469 18.1699 187.469 38.3735" stroke="#000000" stroke-width="2" stroke-miterlimit="8" fill="none" fill-rule="evenodd" transform="matrix(1.83697e-16 1 1 -1.83697e-16 444 69)"/><text font-family="DengXian,DengXian_MSFontService,sans-serif" font-weight="400" font-size="19" transform="translate(807.964 623)">Imm</text><path d="M546 263.5C546 261.567 547.343 260 549 260 550.657 260 552 261.567 552 263.5 552 265.433 550.657 267 549 267 547.343 267 546 265.433 546 263.5Z" stroke="#000000" stroke-width="2" stroke-miterlimit="8" fill-rule="evenodd"/><path d="M473.348 469.359C461.953 480.788 442.775 480.142 430.513 467.916" stroke="#000000" stroke-width="2" stroke-miterlimit="8" fill="none" fill-rule="evenodd"/><path d="M474 468.5C474 484.844 466.127 500.325 452.551 510.676" stroke="#000000" stroke-width="2" stroke-miterlimit="8" fill="none" fill-rule="evenodd"/><path d="M452.645 510.825C438.732 500.31 430.758 484.435 431.006 467.746" stroke="#000000" stroke-width="2" stroke-miterlimit="8" fill="none" fill-rule="evenodd"/><path d="M0 0 0.155381 89.7281" stroke="#000000" stroke-width="2" stroke-miterlimit="8" fill="none" fill-rule="evenodd" transform="matrix(-1 0 0 1 452.155 511)"/><path d="M546 301.5C546 299.567 547.343 298 549 298 550.657 298 552 299.567 552 301.5 552 303.433 550.657 305 549 305 547.343 305 546 303.433 546 301.5Z" stroke="#000000" stroke-width="2" stroke-miterlimit="8" fill-rule="evenodd"/><path d="M440 474.566 440 302 546.167 302" stroke="#000000" stroke-width="2" stroke-miterlimit="8" fill="none" fill-rule="evenodd"/><path d="M593 170 629.009 170" stroke="#000000" stroke-width="4" stroke-miterlimit="8" fill="none" fill-rule="evenodd"/><path d="M581 170C581 166.686 583.686 164 587 164 590.314 164 593 166.686 593 170 593 173.314 590.314 176 587 176 583.686 176 581 173.314 581 170Z" stroke="#000000" stroke-width="2" stroke-miterlimit="8" fill-rule="evenodd"/><rect x="662" y="221" width="81" height="33" stroke="#000000" stroke-width="2" stroke-miterlimit="8" fill="none"/><text font-family="DengXian,DengXian_MSFontService,sans-serif" font-weight="400" font-size="19" transform="translate(667.924 243)">为</text><text font-family="DengXian,DengXian_MSFontService,sans-serif" font-weight="400" font-size="19" transform="translate(686.591 243)">0000</text><text font-family="DengXian,DengXian_MSFontService,sans-serif" font-weight="400" font-size="19" transform="translate(725.924 243)">？</text><path d="M629 170C629 166.686 631.91 164 635.5 164 639.09 164 642 166.686 642 170 642 173.314 639.09 176 635.5 176 631.91 176 629 173.314 629 170Z" stroke="#000000" stroke-width="2" stroke-miterlimit="8" fill-rule="evenodd"/><path d="M0 0 61.0954 0 61.0954 26.6604" stroke="#000000" stroke-width="4" stroke-miterlimit="8" fill="none" fill-rule="evenodd" transform="matrix(1.83697e-16 1 1 -1.83697e-16 636 176)"/><path d="M789.176 208 810.088 208C821.637 208 831 217.85 831 230 831 242.15 821.637 252 810.088 252L789.176 252C789.189 247.126 789.203 242.253 789.216 237.379 789.195 232.544 789.058 227.882 789.051 222.986 789.044 218.089 788.881 227.27 789.176 208Z" stroke="#000000" stroke-width="2" stroke-miterlimit="8" fill="none" fill-rule="evenodd"/><path d="M789.162 223.531 770.691 223.531 770.691 88 443 88" stroke="#000000" stroke-width="2" stroke-miterlimit="8" fill="none" fill-rule="evenodd"/><text font-family="DengXian,DengXian_MSFontService,sans-serif" font-weight="400" font-size="19" transform="translate(857.286 623)">MemRead</text><path d="M549 267 549.053 298.816" stroke="#000000" stroke-width="2" stroke-miterlimit="8" fill="none" fill-rule="evenodd"/><path d="M552 302 814.153 302 814.153 475.099 813.906 475.099" stroke="#000000" stroke-width="2" stroke-miterlimit="8" fill="none" fill-rule="evenodd"/><path d="M831 230 899.155 230 899.155 600.484" stroke="#000000" stroke-width="2" stroke-miterlimit="8" fill="none" fill-rule="evenodd"/><path d="M895 319.5C895 317.567 896.567 316 898.5 316 900.433 316 902 317.567 902 319.5 902 321.433 900.433 323 898.5 323 896.567 323 895 321.433 895 319.5Z" stroke="#000000" stroke-width="2" stroke-miterlimit="8" fill-rule="evenodd"/><path d="M0 0 442.264 0 442.264 158.032 442.929 158.032" stroke="#000000" stroke-width="2" stroke-miterlimit="8" fill="none" fill-rule="evenodd" transform="matrix(-1 1.22465e-16 1.22465e-16 1 894.929 319)"/><path d="M846.776 469.359C835.381 480.788 816.202 480.142 803.94 467.916" stroke="#000000" stroke-width="2" stroke-miterlimit="8" fill="none" fill-rule="evenodd"/><path d="M847 468.5C847 484.844 839.127 500.325 825.551 510.676" stroke="#000000" stroke-width="2" stroke-miterlimit="8" fill="none" fill-rule="evenodd"/><path d="M825.645 510.825C811.732 500.31 803.758 484.435 804.006 467.746" stroke="#000000" stroke-width="2" stroke-miterlimit="8" fill="none" fill-rule="evenodd"/><path d="M826 511 826.192 600.58" stroke="#000000" stroke-width="2" stroke-miterlimit="8" fill="none" fill-rule="evenodd"/><path d="M833 319.5C833 317.567 834.567 316 836.5 316 838.433 316 840 317.567 840 319.5 840 321.433 838.433 323 836.5 323 834.567 323 833 321.433 833 319.5Z" stroke="#000000" stroke-width="2" stroke-miterlimit="8" fill-rule="evenodd"/><path d="M837 323 837 476.107" stroke="#000000" stroke-width="2" stroke-miterlimit="8" fill="none" fill-rule="evenodd"/><path d="M743 238 788.688 238.168" stroke="#000000" stroke-width="2" stroke-miterlimit="8" fill="none" fill-rule="evenodd"/><path d="M650 393 629 431 608 393Z" stroke="#000000" stroke-width="2" stroke-miterlimit="8" fill="none" fill-rule="evenodd"/><path d="M581 448C581 444.686 583.686 442 587 442 590.314 442 593 444.686 593 448 593 451.314 590.314 454 587 454 583.686 454 581 451.314 581 448Z" stroke="#000000" stroke-width="2" stroke-miterlimit="8" fill-rule="evenodd"/><path d="M628.848 431 628.848 447.705 593 447.705" stroke="#000000" stroke-width="4" stroke-miterlimit="8" fill="none" fill-rule="evenodd"/><rect x="601" y="340" width="57" height="32" stroke="#000000" stroke-width="2" stroke-miterlimit="8" fill="none"/><text font-family="DengXian,DengXian_MSFontService,sans-serif" font-weight="400" font-size="19" transform="translate(609.7 362)">0001</text><path d="M0 0 0.192651 20.4069" stroke="#000000" stroke-width="4" stroke-miterlimit="8" fill="none" fill-rule="evenodd" transform="matrix(-1 0 0 1 629.193 372)"/><path d="M689 319.5C689 317.567 690.567 316 692.5 316 694.433 316 696 317.567 696 319.5 696 321.433 694.433 323 692.5 323 690.567 323 689 321.433 689 319.5Z" stroke="#000000" stroke-width="2" stroke-miterlimit="8" fill-rule="evenodd"/><path d="M0 0 0.645861 0 0.645861 21.3164 63.1362 21.3164" stroke="#000000" stroke-width="2" stroke-miterlimit="8" fill="none" fill-rule="evenodd" transform="matrix(-1 0 0 1 703.136 391)"/><rect x="662" y="154" width="81" height="32" stroke="#000000" stroke-width="2" stroke-miterlimit="8" fill="none"/><path d="M0 0 20.3173 0.0112336" stroke="#000000" stroke-width="4" stroke-miterlimit="8" fill="none" fill-rule="evenodd" transform="matrix(1 0 0 -1 642 170.011)"/><path d="M789.176 141 810.088 141C821.637 141 831 150.85 831 163 831 175.15 821.637 185 810.088 185L789.176 185C789.189 180.126 789.203 175.253 789.216 170.379 789.195 165.544 789.058 160.882 789.051 155.986 789.044 151.089 788.881 160.27 789.176 141Z" stroke="#000000" stroke-width="2" stroke-miterlimit="8" fill="none" fill-rule="evenodd"/><path d="M743 170 788.688 170.001" stroke="#000000" stroke-width="2" stroke-miterlimit="8" fill="none" fill-rule="evenodd"/><text font-family="DengXian,DengXian_MSFontService,sans-serif" font-weight="400" font-size="19" transform="translate(667.924 176)">为</text><text font-family="DengXian,DengXian_MSFontService,sans-serif" font-weight="400" font-size="19" transform="translate(686.591 176)">0001</text><text font-family="DengXian,DengXian_MSFontService,sans-serif" font-weight="400" font-size="19" transform="translate(725.924 176)">？</text><path d="M767 155.5C767 153.567 768.343 152 770 152 771.657 152 773 153.567 773 155.5 773 157.433 771.657 159 770 159 768.343 159 767 157.433 767 155.5Z" stroke="#000000" stroke-width="2" stroke-miterlimit="8" fill-rule="evenodd"/><path d="M773 156 788.553 156" stroke="#000000" stroke-width="2" stroke-miterlimit="8" fill="none" fill-rule="evenodd"/><text font-family="DengXian,DengXian_MSFontService,sans-serif" font-weight="400" font-size="19" transform="translate(953.965 623)">MemWrite</text><path d="M831 163 997.18 163 997.18 600.935" stroke="#000000" stroke-width="2" stroke-miterlimit="8" fill="none" fill-rule="evenodd"/><path d="M993 283.5C993 281.567 994.567 280 996.5 280 998.433 280 1000 281.567 1000 283.5 1000 285.433 998.433 287 996.5 287 994.567 287 993 285.433 993 283.5Z" stroke="#000000" stroke-width="2" stroke-miterlimit="8" fill-rule="evenodd"/><path d="M723.379 349.029C711.984 360.458 692.806 359.813 680.544 347.587" stroke="#000000" stroke-width="2" stroke-miterlimit="8" fill="none" fill-rule="evenodd"/><path d="M724 348.5C724 364.844 716.127 380.325 702.551 390.676" stroke="#000000" stroke-width="2" stroke-miterlimit="8" fill="none" fill-rule="evenodd"/><path d="M702.645 390.825C688.732 380.31 680.758 364.435 681.006 347.746" stroke="#000000" stroke-width="2" stroke-miterlimit="8" fill="none" fill-rule="evenodd"/><path d="M692 323 692 355.307" stroke="#000000" stroke-width="2" stroke-miterlimit="8" fill="none" fill-rule="evenodd"/><path d="M0 0 281.266 0 281.266 72.3526 281.731 72.3526" stroke="#000000" stroke-width="2" stroke-miterlimit="8" fill="none" fill-rule="evenodd" transform="matrix(-1 1.22465e-16 1.22465e-16 1 993.731 283)"/><path d="M822 283.5C822 281.567 823.567 280 825.5 280 827.433 280 829 281.567 829 283.5 829 285.433 827.433 287 825.5 287 823.567 287 822 285.433 822 283.5Z" stroke="#000000" stroke-width="2" stroke-miterlimit="8" fill-rule="evenodd"/><path d="M826 287 826 477.395" stroke="#000000" stroke-width="2" stroke-miterlimit="8" fill="none" fill-rule="evenodd"/><path d="M939.176 208 960.088 208C971.637 208 981 217.85 981 230 981 242.15 971.637 252 960.088 252L939.176 252C939.189 247.126 939.203 242.253 939.216 237.379 939.195 232.544 939.058 227.882 939.051 222.986 939.044 218.089 938.881 227.27 939.176 208Z" stroke="#000000" stroke-width="2" stroke-miterlimit="8" fill="none" fill-rule="evenodd"/><path d="M767 237C767 235.343 768.567 234 770.5 234 772.433 234 774 235.343 774 237 774 238.657 772.433 240 770.5 240 768.567 240 767 238.657 767 237Z" stroke="#000000" stroke-width="2" stroke-miterlimit="8" fill-rule="evenodd"/><path d="M770 240.65 770 264.512 917.099 264.512 917.099 238 939.065 238" stroke="#000000" stroke-width="2" stroke-miterlimit="8" fill="none" fill-rule="evenodd"/><path d="M939.117 223.184 917.871 223.184 917.871 110 444 110" stroke="#000000" stroke-width="2" stroke-miterlimit="8" fill="none" fill-rule="evenodd"/><path d="M789 393 768 431 747 393Z" stroke="#000000" stroke-width="2" stroke-miterlimit="8" fill="none" fill-rule="evenodd"/><rect x="740" y="340" width="57" height="32" stroke="#000000" stroke-width="2" stroke-miterlimit="8" fill="none"/><path d="M0 0 0.192651 20.4069" stroke="#000000" stroke-width="4" stroke-miterlimit="8" fill="none" fill-rule="evenodd" transform="matrix(-1 0 0 1 768.193 372)"/><text font-family="DengXian,DengXian_MSFontService,sans-serif" font-weight="400" font-size="19" transform="translate(748.352 362)">1010</text><path d="M623 448C623 444.686 625.91 442 629.5 442 633.09 442 636 444.686 636 448 636 451.314 633.09 454 629.5 454 625.91 454 623 451.314 623 448Z" stroke="#000000" stroke-width="2" stroke-miterlimit="8" fill-rule="evenodd"/><path d="M768.398 431 768.398 447.705 636 447.705" stroke="#000000" stroke-width="4" stroke-miterlimit="8" fill="none" fill-rule="evenodd"/><text font-family="DengXian,DengXian_MSFontService,sans-serif" font-weight="400" font-size="19" transform="translate(1048.04 623)">NearBranch</text><path d="M981 230 1095.69 230 1095.69 600.484" stroke="#000000" stroke-width="2" stroke-miterlimit="8" fill="none" fill-rule="evenodd"/><path d="M1092 412.5C1092 410.567 1093.57 409 1095.5 409 1097.43 409 1099 410.567 1099 412.5 1099 414.433 1097.43 416 1095.5 416 1093.57 416 1092 414.433 1092 412.5Z" stroke="#000000" stroke-width="2" stroke-miterlimit="8" fill-rule="evenodd"/><path d="M0 0 313.417 0.0443045" stroke="#000000" stroke-width="2" stroke-miterlimit="8" fill="none" fill-rule="evenodd" transform="matrix(1 0 0 -1 778 412.044)"/><text font-family="DengXian,DengXian_MSFontService,sans-serif" font-weight="400" font-size="37" transform="translate(1081.34 82)">控制逻辑</text><path d="M939.176 95 960.088 95C971.637 95 981 104.85 981 117 981 129.15 971.637 139 960.088 139L939.176 139C939.189 134.126 939.203 129.253 939.216 124.379 939.195 119.544 939.058 114.882 939.051 109.986 939.044 105.089 938.881 114.27 939.176 95Z" stroke="#000000" stroke-width="2" stroke-miterlimit="8" fill="none" fill-rule="evenodd"/><path d="M915 110C915 108.343 916.343 107 918 107 919.657 107 921 108.343 921 110 921 111.657 919.657 113 918 113 916.343 113 915 111.657 915 110Z" stroke="#000000" stroke-width="2" stroke-miterlimit="8" fill-rule="evenodd"/><path d="M921 110 938.907 110.043" stroke="#000000" stroke-width="2" stroke-miterlimit="8" fill="none" fill-rule="evenodd"/><path d="M753 170.5C753 168.567 754.567 167 756.5 167 758.433 167 760 168.567 760 170.5 760 172.433 758.433 174 756.5 174 754.567 174 753 172.433 753 170.5Z" stroke="#000000" stroke-width="2" stroke-miterlimit="8" fill-rule="evenodd"/><path d="M757 166.41 757 152.527 757.132 152.527 757.132 124 939.852 124" stroke="#000000" stroke-width="2" stroke-miterlimit="8" fill="none" fill-rule="evenodd"/><path d="M981 117 1194.26 117 1194.26 600.709" stroke="#000000" stroke-width="2" stroke-miterlimit="8" fill="none" fill-rule="evenodd"/><text font-family="DengXian,DengXian_MSFontService,sans-serif" font-weight="400" font-size="19" transform="translate(1151.07 623)">AbsBranch</text></g></svg>