<svg width="1280" height="720" xmlns="http://www.w3.org/2000/svg" xmlns:xlink="http://www.w3.org/1999/xlink" overflow="hidden"><g><rect x="0" y="0" width="1280" height="720" fill="#FFFFFF"/><rect x="59" y="334" width="90" height="225" stroke="#000000" stroke-width="2" stroke-miterlimit="8" fill="none"/><text font-family="DengXian,DengXian_MSFontService,sans-serif" font-weight="700" font-size="32" transform="translate(86.9086 438)">PC</text><path d="M95 559 107.5 539 120 559Z" stroke="#000000" stroke-width="2" stroke-miterlimit="8" fill="none" fill-rule="evenodd"/><text font-family="DengXian,DengXian_MSFontService,sans-serif" font-weight="400" font-size="19" transform="matrix(-1.83697e-16 -1 1 -1.83697e-16 138.45 373)">PC</text><text font-family="DengXian,DengXian_MSFontService,sans-serif" font-weight="400" font-size="19" transform="matrix(-1.83697e-16 -1 1 -1.83697e-16 138.45 542)">PC+4</text><text font-family="DengXian,DengXian_MSFontService,sans-serif" font-weight="400" font-size="19" transform="matrix(6.12323e-17 1 -1 6.12323e-17 69.9082 350)">Branch</text><text font-family="DengXian,DengXian_MSFontService,sans-serif" font-weight="400" font-size="19" transform="matrix(6.12323e-17 1 -1 6.12323e-17 68.6365 450)">BranchAddr</text><rect x="78.9999" y="216" width="123" height="104" stroke="#000000" stroke-width="2" stroke-miterlimit="8" fill="none"/><text font-family="DengXian,DengXian_MSFontService,sans-serif" font-weight="700" font-size="21" transform="translate(101.222 263)">指令</text><text font-family="DengXian,DengXian_MSFontService,sans-serif" font-weight="700" font-size="21" transform="translate(90.5552 289)">存储器</text><text font-family="DengXian,DengXian_MSFontService,sans-serif" font-weight="400" font-size="19" transform="translate(154.428 310)">Addr</text><text font-family="DengXian,DengXian_MSFontService,sans-serif" font-weight="400" font-size="19" transform="translate(162.698 238)">Inst</text><rect x="1087" y="272" width="128" height="198" stroke="#000000" stroke-width="2" stroke-miterlimit="8" fill="none"/><text font-family="DengXian,DengXian_MSFontService,sans-serif" font-weight="700" font-size="21" transform="translate(1140.43 326)">数</text><text font-family="DengXian,DengXian_MSFontService,sans-serif" font-weight="700" font-size="21" transform="translate(1140.43 352)">据</text><text font-family="DengXian,DengXian_MSFontService,sans-serif" font-weight="700" font-size="21" transform="translate(1140.43 377)">存</text><text font-family="DengXian,DengXian_MSFontService,sans-serif" font-weight="700" font-size="21" transform="translate(1140.43 403)">储</text><text font-family="DengXian,DengXian_MSFontService,sans-serif" font-weight="700" font-size="21" transform="translate(1140.43 428)">器</text><text font-family="DengXian,DengXian_MSFontService,sans-serif" font-weight="400" font-size="16" transform="matrix(6.12323e-17 1 -1 6.12323e-17 1096.87 320)">Addr</text><text font-family="DengXian,DengXian_MSFontService,sans-serif" font-weight="400" font-size="16" transform="matrix(6.12323e-17 1 -1 6.12323e-17 1196.11 363)">RD</text><text font-family="DengXian,DengXian_MSFontService,sans-serif" font-weight="400" font-size="16" transform="matrix(6.12323e-17 1 -1 6.12323e-17 1096.23 410)">WD</text><text font-family="DengXian,DengXian_MSFontService,sans-serif" font-weight="400" font-size="16" transform="translate(1166.23 292)">WE</text><text font-family="DengXian,DengXian_MSFontService,sans-serif" font-weight="400" font-size="16" transform="translate(1112.03 292)">RE</text><path d="M1139 470 1151 449 1163 470Z" stroke="#000000" stroke-width="2" stroke-miterlimit="8" fill="none" fill-rule="evenodd"/><rect x="366" y="270" width="107" height="163" stroke="#000000" stroke-width="2" stroke-miterlimit="8" fill="none"/><text font-family="DengXian,DengXian_MSFontService,sans-serif" font-weight="700" font-size="21" transform="translate(412.253 321)">寄</text><text font-family="DengXian,DengXian_MSFontService,sans-serif" font-weight="700" font-size="21" transform="translate(412.253 347)">存</text><text font-family="DengXian,DengXian_MSFontService,sans-serif" font-weight="700" font-size="21" transform="translate(412.253 372)">器</text><text font-family="DengXian,DengXian_MSFontService,sans-serif" font-weight="700" font-size="21" transform="translate(412.253 398)">堆</text><text font-family="DengXian,DengXian_MSFontService,sans-serif" font-weight="400" font-size="16" transform="translate(375.419 314)">R1#</text><text font-family="DengXian,DengXian_MSFontService,sans-serif" font-weight="400" font-size="16" transform="translate(374.611 345)">R2#</text><text font-family="DengXian,DengXian_MSFontService,sans-serif" font-weight="400" font-size="16" transform="translate(375.62 379)">W#</text><text font-family="DengXian,DengXian_MSFontService,sans-serif" font-weight="400" font-size="16" transform="translate(374.866 405)">WD</text><text font-family="DengXian,DengXian_MSFontService,sans-serif" font-weight="400" font-size="16" transform="translate(445.222 337)">R1</text><text font-family="DengXian,DengXian_MSFontService,sans-serif" font-weight="400" font-size="16" transform="translate(446.054 387)">R2</text><text font-family="DengXian,DengXian_MSFontService,sans-serif" font-weight="400" font-size="16" transform="translate(410.691 290)">WE</text><path d="M412 433 424 412 436 433Z" stroke="#000000" stroke-width="2" stroke-miterlimit="8" fill="none" fill-rule="evenodd"/><rect x="223" y="159" width="24" height="429" stroke="#000000" stroke-width="2" stroke-miterlimit="8" fill="none"/><text font-family="DengXian,DengXian_MSFontService,sans-serif" font-weight="400" font-size="19" transform="matrix(6.12323e-17 1 -1 6.12323e-17 230.373 170)">Slice</text><text font-family="DengXian,DengXian_MSFontService,sans-serif" font-weight="400" font-size="16" transform="translate(250.918 174)">op</text><text font-family="DengXian,DengXian_MSFontService,sans-serif" font-weight="400" font-size="16" transform="translate(250.918 210)">func</text><text font-family="DengXian,DengXian_MSFontService,sans-serif" font-weight="400" font-size="16" transform="translate(251.692 302)">rs</text><text font-family="DengXian,DengXian_MSFontService,sans-serif" font-weight="400" font-size="16" transform="translate(251.42 334)">rt</text><text font-family="DengXian,DengXian_MSFontService,sans-serif" font-weight="400" font-size="16" transform="translate(250.211 376)">rd</text><text font-family="DengXian,DengXian_MSFontService,sans-serif" font-weight="400" font-size="16" transform="translate(250.764 512)">imm</text><text font-family="DengXian,DengXian_MSFontService,sans-serif" font-weight="400" font-size="16" transform="translate(250.829 477)">shamt</text><rect x="376" y="55" width="860" height="71" stroke="#000000" stroke-width="2" stroke-miterlimit="8" fill="none"/><path d="M0-1 46.7397-1 46.7397 104.819 45.7397 103.819 122.149 103.819 122.149 105.819 44.7397 105.819 44.7397 0 45.7397 1 0 1ZM120.815 100.819 128.815 104.819 120.815 108.819Z" transform="matrix(1 0 0 -1 247 180.819)"/><path d="M0-1 86.1147-1 86.1147 107.617 85.1147 106.617 120.898 106.617 120.898 108.617 84.1147 108.617 84.1147 0 85.1147 1 0 1ZM119.564 103.617 127.564 107.617 119.564 111.617Z" transform="matrix(1 0 0 -1 248 214.617)"/><text font-family="DengXian,DengXian_MSFontService,sans-serif" font-weight="700" font-size="24" transform="translate(730.315 80)">控制逻辑</text><text font-family="DengXian,DengXian_MSFontService,sans-serif" font-weight="400" font-size="16" transform="translate(887.763 118)">AluOp</text><text font-family="DengXian,DengXian_MSFontService,sans-serif" font-weight="400" font-size="16" transform="translate(433.841 118)">RegWrite</text><text font-family="DengXian,DengXian_MSFontService,sans-serif" font-weight="400" font-size="16" transform="translate(385.756 77)">op</text><text font-family="DengXian,DengXian_MSFontService,sans-serif" font-weight="400" font-size="16" transform="translate(383.987 112)">func</text><path d="M911 126.998 911.273 282.996 909.273 282.999 909 127.002ZM915.79 275.494 910.276 284.984 904.729 275.513C904.45 275.037 904.61 274.424 905.087 274.145 905.563 273.866 906.176 274.026 906.455 274.503L911.136 282.494 909.408 282.497 914.061 274.489C914.338 274.012 914.95 273.85 915.428 274.127 915.905 274.404 916.068 275.017 915.79 275.494Z" fill="#0F9ED5"/><path d="M0-1 276.31-1 276.31 17.6844 275.31 16.6844 308.218 16.6844 308.218 18.6844 274.31 18.6844 274.31 0 275.31 1 0 1ZM306.884 13.6844 314.884 17.6844 306.884 21.6844Z" transform="matrix(1 0 0 -1 473 331.684)"/><path d="M0-1 201.5-1 201.5 16.0649 200.5 15.0649 232.2 15.0649 232.2 17.0649 199.5 17.0649 199.5 0 200.5 1 0 1ZM230.867 12.0649 238.867 16.0649 230.867 20.0649Z" transform="matrix(1 0 0 -1 548 390.065)"/><path d="M358.333 401 348.039 401 349.039 400 349.039 455.646 348.039 454.646 1029.34 454.646 1029.34 456.646 347.039 456.646 347.039 399 358.333 399ZM357 396 365 400 357 404Z"/><rect x="843" y="286" width="146" height="111" stroke="#000000" stroke-width="2" stroke-miterlimit="8" fill="none"/><text font-family="DengXian,DengXian_MSFontService,sans-serif" font-weight="700" font-size="32" transform="translate(883.46 361)">ALU</text><text font-family="DengXian,DengXian_MSFontService,sans-serif" font-weight="400" font-size="16" transform="translate(851.373 328)">A</text><text font-family="DengXian,DengXian_MSFontService,sans-serif" font-weight="400" font-size="16" transform="translate(851 388)">B</text><text font-family="DengXian,DengXian_MSFontService,sans-serif" font-weight="400" font-size="16" transform="translate(953.9 342)">Res</text><text font-family="DengXian,DengXian_MSFontService,sans-serif" font-weight="400" font-size="16" transform="translate(888.04 305)">AluOp</text><path d="M788 300 804 304 804 340 788 344Z" stroke="#000000" stroke-width="2" stroke-miterlimit="8" fill="none" fill-rule="evenodd"/><text font-family="DengXian,DengXian_MSFontService,sans-serif" font-weight="700" font-size="11" transform="translate(790.84 316)">0</text><text font-family="DengXian,DengXian_MSFontService,sans-serif" font-weight="700" font-size="11" transform="translate(790.862 333)">1</text><path d="M788 361 804 365 804 401 788 405Z" stroke="#000000" stroke-width="2" stroke-miterlimit="8" fill="none" fill-rule="evenodd"/><text font-family="DengXian,DengXian_MSFontService,sans-serif" font-weight="700" font-size="11" transform="translate(790.84 377)">0</text><text font-family="DengXian,DengXian_MSFontService,sans-serif" font-weight="700" font-size="11" transform="translate(790.999 395)">1</text><path d="M804.002 321 835.403 321.048 835.4 323.048 803.998 323ZM834.074 318.046 842.068 322.059 834.062 326.046Z"/><path d="M804.001 382 835.029 382.031 835.027 384.031 803.999 384ZM833.699 379.03 841.695 383.038 833.691 387.03Z"/><path d="M768 369.747 768 328.871 780.993 328.894 780.99 330.894 768.998 330.873 770 329.873 770 369.747ZM779.721 325.874 787.657 330 779.595 333.873Z"/><path d="M766 373.5C766 371.567 767.567 370 769.5 370 771.433 370 773 371.567 773 373.5 773 375.433 771.433 377 769.5 377 767.567 377 766 375.433 766 373.5Z" stroke="#000000" stroke-width="2" stroke-miterlimit="8" fill-rule="evenodd"/><path d="M0-1 325.044-1 325.044 89.4071 324.044 88.4071 336.361 88.4071 336.361 90.4071 323.044 90.4071 323.044 0 324.044 1 0 1ZM335.028 85.4071 343.028 89.4071 335.028 93.4071Z" transform="matrix(1 0 0 -1 445 481.407)"/><text font-family="DengXian,DengXian_MSFontService,sans-serif" font-weight="400" font-size="16" transform="translate(778.805 118)">Shift</text><path d="M0.999999-0.00143881 1.24849 172.702-0.751511 172.705-0.999999 0.00143881ZM5.76814 165.201 0.251345 174.69-5.29274 165.217C-5.5717 164.74-5.41145 164.128-4.9348 163.849-4.45815 163.57-3.8456 163.73-3.56663 164.207L1.11154 172.2-0.616013 172.202 4.03914 164.196C4.31673 163.718 4.92882 163.556 5.40627 163.834 5.88372 164.111 6.04574 164.723 5.76814 165.201Z" fill="#0F9ED5" transform="matrix(-1 0 0 1 794.251 127)"/><path d="M0 0 1.124 0 1.124 27.8367 71.0485 27.8367" stroke="#0F9ED5" stroke-width="2" stroke-miterlimit="8" fill="none" fill-rule="evenodd" transform="matrix(1.83697e-16 1 1 -1.83697e-16 794 278)"/><path d="M0-1 28.9363-1 28.9363 10.6667 26.9363 10.6667 26.9363 0 27.9363 1 0 1ZM33.4667 3.17059 27.9363 12.6514 22.4058 3.17059C22.1275 2.69354 22.2887 2.08122 22.7657 1.80294 23.2428 1.52466 23.8551 1.6858 24.1334 2.16285L28.8001 10.1628 27.0725 10.1628 31.7392 2.16285C32.0174 1.6858 32.6298 1.52466 33.1068 1.80294 33.5839 2.08122 33.745 2.69354 33.4667 3.17059Z" fill="#0F9ED5" transform="matrix(-1 1.22465e-16 1.22465e-16 1 821.936 350)"/><path d="M790 278.5C790 276.567 791.567 275 793.5 275 795.433 275 797 276.567 797 278.5 797 280.433 795.433 282 793.5 282 791.567 282 790 280.433 790 278.5Z" stroke="#0F9ED5" stroke-width="2" stroke-miterlimit="8" fill="#0F9ED5" fill-rule="evenodd"/><path d="M401 474 445 469 445 494 401 494Z" stroke="#000000" stroke-width="2" stroke-miterlimit="8" fill="none" fill-rule="evenodd"/><path d="M247 480 394.785 480 394.785 482 247 482ZM393.452 477 401.452 481 393.452 485Z"/><text font-family="DengXian,DengXian_MSFontService,sans-serif" font-weight="400" font-size="14" transform="translate(405.023 487)">0</text><text font-family="DengXian,DengXian_MSFontService,sans-serif" font-weight="400" font-size="14" transform="translate(412.356 487)">-</text><text font-family="DengXian,DengXian_MSFontService,sans-serif" font-weight="400" font-size="14" transform="translate(419.356 487)">EXT</text><text font-family="DengXian,DengXian_MSFontService,sans-serif" font-weight="400" font-size="14" transform="translate(390.318 476)">5</text><text font-family="DengXian,DengXian_MSFontService,sans-serif" font-weight="400" font-size="14" transform="translate(449.787 476)">32</text><path d="M724 331.5C724 329.567 725.567 328 727.5 328 729.433 328 731 329.567 731 331.5 731 333.433 729.433 335 727.5 335 725.567 335 724 333.433 724 331.5Z" stroke="#000000" stroke-width="2" stroke-miterlimit="8" fill-rule="evenodd"/><path d="M599.327 598.379 30.5126 598.379 30.5126 497 51.3333 497 51.3333 499 31.5126 499 32.5126 498 32.5126 597.379 31.5126 596.379 599.327 596.379ZM50 494 58 498 50 502Z"/><text font-family="DengXian,DengXian_MSFontService,sans-serif" font-weight="400" font-size="16" transform="translate(536.367 76)">RegBranch</text><path d="M572.698 57 572.698 33.0002 573.698 34.0002 177.897 34.0002 178.897 33.0002 178.897 90.0661 104.98 90.0661 104.98 88.0661 177.897 88.0661 176.897 89.0661 176.897 32.0002 574.698 32.0002 574.698 57ZM112.476 94.5966 102.995 89.0661 112.476 83.5357C112.953 83.2574 113.565 83.4185 113.844 83.8956 114.122 84.3727 113.961 84.985 113.484 85.2633L105.484 89.9299 105.484 88.2024 113.484 92.869C113.961 93.1473 114.122 93.7596 113.844 94.2367 113.565 94.7137 112.953 94.8749 112.476 94.5966Z" fill="#0F9ED5"/><path d="M308 352 323 355.75 323 392.25 308 396Z" stroke="#000000" stroke-width="2" stroke-miterlimit="8" fill="none" fill-rule="evenodd"/><text font-family="DengXian,DengXian_MSFontService,sans-serif" font-weight="700" font-size="11" transform="translate(310.578 368)">1</text><text font-family="DengXian,DengXian_MSFontService,sans-serif" font-weight="700" font-size="11" transform="translate(310.632 384)">0</text><path d="M284 340.5C284 338.567 285.567 337 287.5 337 289.433 337 291 338.567 291 340.5 291 342.433 289.433 344 287.5 344 285.567 344 284 342.433 284 340.5Z" stroke="#000000" stroke-width="2" stroke-miterlimit="8" fill-rule="evenodd"/><path d="M301.138 365.616 286 365.616 286 344 288 344 288 364.616 287 363.616 301.138 363.616ZM299.805 360.616 307.805 364.616 299.805 368.616Z"/><path d="M0.00340044-0.999994 35.9124-0.877887 35.9056 1.1221-0.00340044 0.999994ZM34.5893-3.8824 42.5756 0.144777 34.5621 4.11755Z" transform="matrix(1 0 0 -1 323 374.145)"/><text font-family="DengXian,DengXian_MSFontService,sans-serif" font-weight="400" font-size="16" transform="translate(525.43 118)">Imm</text><path d="M542 127 542 369.865 540 369.865 540 127ZM546.531 362.368 541 371.849 535.47 362.368C535.191 361.891 535.353 361.279 535.83 361.001 536.307 360.722 536.919 360.883 537.197 361.361L541.864 369.361 540.136 369.361 544.803 361.361C545.081 360.883 545.694 360.722 546.171 361.001 546.648 361.279 546.809 361.891 546.531 362.368Z" fill="#0F9ED5"/><path d="M532.104 368 548 371.983 548 409.017 532.104 413 532.202 397.306 532 381.099 532.104 368Z" stroke="#000000" stroke-width="2" stroke-miterlimit="8" fill="none" fill-rule="evenodd"/><text font-family="DengXian,DengXian_MSFontService,sans-serif" font-weight="700" font-size="11" transform="translate(534.734 385)">0</text><text font-family="DengXian,DengXian_MSFontService,sans-serif" font-weight="700" font-size="11" transform="translate(534.734 400)">1</text><path d="M474 381 525.372 381 525.372 383 474 383ZM524.039 378 532.039 382 524.039 386Z"/><path d="M388 509 458 504 458 529 388 529Z" stroke="#000000" stroke-width="2" stroke-miterlimit="8" fill="none" fill-rule="evenodd"/><text font-family="DengXian,DengXian_MSFontService,sans-serif" font-weight="400" font-size="14" transform="translate(396.134 522)">Sign</text><text font-family="DengXian,DengXian_MSFontService,sans-serif" font-weight="400" font-size="14" transform="translate(422.134 522)">-</text><text font-family="DengXian,DengXian_MSFontService,sans-serif" font-weight="400" font-size="14" transform="translate(429.134 522)">EXT</text><text font-family="DengXian,DengXian_MSFontService,sans-serif" font-weight="400" font-size="14" transform="translate(370.051 511)">16</text><text font-family="DengXian,DengXian_MSFontService,sans-serif" font-weight="400" font-size="14" transform="translate(461.992 511)">32</text><path d="M246 515 381.357 515 381.357 517 246 517ZM380.024 512 388.024 516 380.024 520Z"/><path d="M0 0 56.6823 0 56.6823 117.522" stroke="#000000" stroke-width="2" stroke-miterlimit="8" fill="none" fill-rule="evenodd" transform="matrix(1 0 0 -1 458 516.522)"/><path d="M515 398 526.333 398 526.333 400 515 400ZM525 395 533 399 525 403Z"/><path d="M0-1 223.232-1 223.232 104.034 221.232 104.034 221.232 0 222.232 1 0 1ZM227.763 96.5377 222.232 106.018 216.702 96.5377C216.424 96.0607 216.585 95.4484 217.062 95.1701 217.539 94.8918 218.151 95.0529 218.429 95.53L223.096 103.53 221.369 103.53 226.035 95.53C226.314 95.0529 226.926 94.8918 227.403 95.1701 227.88 95.4484 228.041 96.0607 227.763 96.5377Z" fill="#0F9ED5" transform="matrix(-1 1.22465e-16 1.22465e-16 1 538.232 247)"/><path d="M538 247.5C538 245.567 539.567 244 541.5 244 543.433 244 545 245.567 545 247.5 545 249.433 543.433 251 541.5 251 539.567 251 538 249.433 538 247.5Z" stroke="#0F9ED5" stroke-width="2" stroke-miterlimit="8" fill="#0F9ED5" fill-rule="evenodd"/><text font-family="DengXian,DengXian_MSFontService,sans-serif" font-weight="400" font-size="16" transform="translate(1002.34 118)">MemRead</text><text font-family="DengXian,DengXian_MSFontService,sans-serif" font-weight="400" font-size="16" transform="translate(1141.06 118)">MemWrite</text><path d="M0-1 130.415-1 130.415 83.0065 129.415 82.0065 142.93 82.0065 142.93 84.0065 128.415 84.0065 128.415 0 129.415 1 0 1ZM135.434 77.4761 144.915 83.0065 135.434 88.5369C134.957 88.8152 134.345 88.6541 134.067 88.177 133.788 87.7 133.95 87.0877 134.427 86.8094L142.427 82.1427 142.427 83.8703 134.427 79.2036C133.95 78.9253 133.788 78.313 134.067 77.836 134.345 77.3589 134.957 77.1978 135.434 77.4761Z" fill="#0F9ED5" transform="matrix(1.83697e-16 1 1 -1.83697e-16 1038 127)"/><path d="M0-1 73.4552-1 73.4552 0.0116535 72.4552-0.988346 142.93-0.988346 142.93 1.01165 71.4552 1.01165 71.4552 0 72.4552 1 0 1ZM135.434-5.51879 144.915 0.0116535 135.434 5.5421C134.957 5.82038 134.345 5.65924 134.067 5.18219 133.788 4.70514 133.95 4.09282 134.427 3.81454L142.427-0.852125 142.427 0.875432 134.427-3.79123C133.95-4.06951 133.788-4.68183 134.067-5.15888 134.345-5.63594 134.957-5.79707 135.434-5.51879Z" fill="#0F9ED5" transform="matrix(1.83697e-16 1 1 -1.83697e-16 1178 127)"/><path d="M1064 337C1064 335.343 1065.34 334 1067 334 1068.66 334 1070 335.343 1070 337 1070 338.657 1068.66 340 1067 340 1065.34 340 1064 338.657 1064 337Z" stroke="#000000" stroke-width="2" stroke-miterlimit="8" fill-rule="evenodd"/><path d="M1070.02 336 1080.69 336.239 1080.65 338.239 1069.98 338ZM1079.43 333.21 1087.34 337.388 1079.25 341.208Z"/><path d="M489 381.5C489 379.567 490.567 378 492.5 378 494.433 378 496 379.567 496 381.5 496 383.433 494.433 385 492.5 385 490.567 385 489 383.433 489 381.5Z" stroke="#000000" stroke-width="2" stroke-miterlimit="8" fill-rule="evenodd"/><path d="M0-1 38.9727-1 38.9727 588.092 36.9727 588.092 36.9727 0 37.9727 1 0 1ZM41.9727 586.759 37.9727 594.759 33.9727 586.759Z" transform="matrix(1.83697e-16 1 1 -1.83697e-16 492 385)"/><path d="M1045 478 1030 474.25 1030 436.75 1045 433Z" stroke="#000000" stroke-width="2" stroke-miterlimit="8" fill="none" fill-rule="evenodd"/><text font-family="DengXian,DengXian_MSFontService,sans-serif" font-weight="700" font-size="11" transform="translate(1036.99 450)">0</text><text font-family="DengXian,DengXian_MSFontService,sans-serif" font-weight="700" font-size="11" transform="translate(1037.25 468)">1</text><path d="M0 0 75.7691 0.032231" stroke="#000000" stroke-width="2" stroke-miterlimit="8" fill="none" fill-rule="evenodd" transform="matrix(-1 0 0 1 1063.77 337)"/><path d="M1067.77 340 1067.77 446.718 1051.67 446.739 1051.66 444.739 1066.77 444.719 1065.77 445.719 1065.77 340ZM1053.06 449.719 1045 445.838 1052.94 441.72Z"/><path d="M0 0-19.8094 0-19.8094 114.24 147.26 114.24" stroke="#000000" stroke-width="2" stroke-miterlimit="8" fill="none" fill-rule="evenodd" transform="matrix(-1 1.22465e-16 1.22465e-16 1 1215.26 373)"/><path d="M0-1 22.7996-1 22.9793 14.9047 20.9794 14.9273 20.8109 0.0112959 21.8108 1 0 1ZM25.7788 13.0879 22.8218 21.5292 17.8429 14.0989Z" transform="matrix(-1.83697e-16 -1 -1 1.83697e-16 1066.53 486.822)"/><path d="M1034 256.5C1034 254.567 1035.57 253 1037.5 253 1039.43 253 1041 254.567 1041 256.5 1041 258.433 1039.43 260 1037.5 260 1035.57 260 1034 258.433 1034 256.5Z" stroke="#0F9ED5" stroke-width="2" stroke-miterlimit="8" fill="#0F9ED5" fill-rule="evenodd"/><path d="M1039 260 1039 435.241 1037 435.241 1037 260ZM1043.53 427.745 1038 437.226 1032.47 427.745C1032.19 427.268 1032.35 426.656 1032.83 426.378 1033.31 426.099 1033.92 426.26 1034.2 426.738L1038.86 434.738 1037.14 434.738 1041.8 426.738C1042.08 426.26 1042.69 426.099 1043.17 426.378 1043.65 426.656 1043.81 427.268 1043.53 427.745Z" fill="#0F9ED5"/><path d="M0-1 26.502-1 26.502 35.1668 24.502 35.1668 24.502 0 25.502 1 0 1ZM29.502 33.8335 25.502 41.8335 21.502 33.8335Z" transform="matrix(1 0 0 -1 149 361.833)"/><path d="M176 216.252 176 182 215.664 182 215.664 184 177 184 178 183 178 216.252ZM214.33 179 222.33 183 214.33 187Z"/><path d="M6.66666-0.999988 59.2932-0.999895 59.2932 1.0001 6.66666 1.00001ZM7.99999 4.00001 0 0 8.00001-3.99999Z" transform="matrix(-1 0 0 1 307.293 381)"/><path d="M6.6667-0.999994 116.611-0.999895 116.611 1.0001 6.66669 1.00001ZM8 4.00001 0 0 8-3.99999Z" transform="matrix(-1 0 0 1 364.611 340)"/><path d="M6.6667-0.999994 119.019-0.999895 119.019 1.0001 6.6667 1.00001ZM8 4.00001 0 0 8-3.99999Z" transform="matrix(-1 0 0 1 366.019 309)"/><path d="M466.766 127 466.766 198.151 422 198.151 423 197.151 423 268.522 421 268.522 421 196.151 465.766 196.151 464.766 197.151 464.766 127ZM427.531 261.026 422 270.507 416.47 261.026C416.191 260.549 416.352 259.937 416.83 259.659 417.307 259.38 417.919 259.542 418.197 260.019L422.864 268.019 421.136 268.019 425.803 260.019C426.081 259.542 426.694 259.38 427.171 259.659 427.648 259.937 427.809 260.549 427.531 261.026Z" fill="#0F9ED5"/><text font-family="DengXian,DengXian_MSFontService,sans-serif" font-weight="400" font-size="16" transform="translate(656.472 118)">NearBranch</text><path d="M1002 337C1002 335.343 1003.57 334 1005.5 334 1007.43 334 1009 335.343 1009 337 1009 338.657 1007.43 340 1005.5 340 1003.57 340 1002 338.657 1002 337Z" stroke="#000000" stroke-width="2" stroke-miterlimit="8" fill-rule="evenodd"/><text font-family="DengXian,DengXian_MSFontService,sans-serif" font-weight="400" font-size="15" transform="translate(1009.51 326)">[0]</text><path d="M800 527 761 527 749 515 761 503 800 503 788 515Z" stroke="#000000" stroke-width="2" stroke-miterlimit="8" fill="#FFFFFF" fill-rule="evenodd"/><text font-family="DengXian,DengXian_MSFontService,sans-serif" font-weight="400" font-size="14" transform="translate(758.814 519)">&lt;&lt;2</text><path d="M512 515.5C512 513.567 513.343 512 515 512 516.657 512 518 513.567 518 515.5 518 517.433 516.657 519 515 519 513.343 519 512 517.433 512 515.5Z" stroke="#000000" stroke-width="2" stroke-miterlimit="8" fill-rule="evenodd"/><path d="M0.00211018-0.999998 224.236-0.526821 224.232 1.47317-0.00211018 0.999998ZM222.909-3.52963 230.901 0.487244 222.892 4.47035Z" transform="matrix(1 0 0 -1 518 515.487)"/><path d="M845 555 845 501 866 511.8 866 544.2Z" stroke="#000000" stroke-width="2" stroke-miterlimit="8" fill="#FFFFFF" fill-rule="evenodd"/><text font-family="DengXian,DengXian_MSFontService,sans-serif" font-weight="400" font-size="24" transform="matrix(-1.83697e-16 -1 1 -1.83697e-16 863.004 536)">+</text><path d="M788 514 837.396 514 837.396 516 788 516ZM836.062 511 844.062 515 836.062 519Z"/><path d="M248 537 838.133 537 838.133 539 248 539ZM836.8 534 844.8 538 836.8 542Z"/><path d="M727 160.176 727 181.088C727 192.637 717.15 202 705 202 692.85 202 683 192.637 683 181.088L683 160.176C687.874 160.189 692.747 160.203 697.621 160.216 702.456 160.195 707.118 160.058 712.014 160.051 716.911 160.044 707.73 159.881 727 160.176Z" stroke="#000000" stroke-width="2" stroke-miterlimit="8" fill="none" fill-rule="evenodd"/><path d="M698 126.996 698.116 158.497 696.116 158.504 696 127.004ZM702.618 150.984 697.123 160.485 691.558 151.025C691.278 150.549 691.437 149.936 691.913 149.656 692.389 149.376 693.001 149.535 693.281 150.011L697.977 157.993 696.25 158 700.887 149.983C701.164 149.505 701.776 149.341 702.254 149.618 702.732 149.894 702.895 150.506 702.618 150.984Z" fill="#0F9ED5"/><path d="M0-1 191.976-1 191.976 295.02 175.294 295.02 175.294 293.02 190.976 293.02 189.976 294.02 189.976 0 190.976 1 0 1ZM182.79 299.551 173.309 294.02 182.79 288.49C183.267 288.212 183.879 288.373 184.158 288.85 184.436 289.327 184.275 289.939 183.798 290.218L175.798 294.884 175.798 293.157 183.798 297.823C184.275 298.102 184.436 298.714 184.158 299.191 183.879 299.668 183.267 299.829 182.79 299.551Z" fill="#4EA72E" transform="matrix(-1.83697e-16 -1 -1 1.83697e-16 1006.02 333.314)"/><path d="M713 610 697 606 697 570 713 566Z" stroke="#000000" stroke-width="2" stroke-miterlimit="8" fill="none" fill-rule="evenodd"/><text font-family="DengXian,DengXian_MSFontService,sans-serif" font-weight="700" font-size="11" transform="translate(704.283 583)">0</text><text font-family="DengXian,DengXian_MSFontService,sans-serif" font-weight="700" font-size="11" transform="translate(704.283 600)">1</text><path d="M728.849 335 728.849 580.429 719.655 580.561 719.626 578.561 727.834 578.443 726.849 579.443 726.849 335ZM721.323 583.427 713 580.151 720.614 575.459Z"/><path d="M0 1-40.5457 1-39.5457 0-39.5457 68.7148-40.5457 67.7148 146.33 67.7148 146.33 69.7148-41.5457 69.7148-41.5457-1 0-1ZM144.997 64.7148 152.997 68.7148 144.997 72.7147Z" transform="matrix(-1 0 0 1 865.997 528)"/><path d="M109.605 116.764C98.1758 105.369 98.8217 86.1908 111.047 73.9283" stroke="#000000" stroke-width="2" stroke-miterlimit="8" fill="none" fill-rule="evenodd"/><path d="M110.5 117C94.1563 117 78.6753 109.127 68.3241 95.5507" stroke="#000000" stroke-width="2" stroke-miterlimit="8" fill="none" fill-rule="evenodd"/><path d="M68.1755 95.6451C78.6905 81.732 94.5651 73.7578 111.254 74.0056" stroke="#000000" stroke-width="2" stroke-miterlimit="8" fill="none" fill-rule="evenodd"/><path d="M0 1-24.0001 1-23.0001 0-23.0001 391.396-24.0001 390.396 96.068 390.396 96.068 598.827 94.068 598.827 94.068 391.396 95.068 392.396-25.0001 392.396-25.0001-1 0-1ZM100.598 591.331 95.068 600.812 89.5376 591.331C89.2593 590.854 89.4204 590.242 89.8975 589.963 90.3745 589.685 90.9869 589.846 91.2651 590.323L95.9318 598.323 94.2042 598.323 98.8709 590.323C99.1492 589.846 99.7615 589.685 100.239 589.963 100.716 590.242 100.877 590.854 100.598 591.331Z" fill="#0F9ED5" transform="matrix(-6.12323e-17 -1 -1 6.12323e-17 704.807 202.068)"/><path d="M66.3737 95.9999 66.3737 94.9277 67.3737 95.9277 35.0001 95.9277 36.0001 94.9277 36.0001 378.138 35.0001 377.138 57.0201 377.138 57.0201 379.138 34.0001 379.138 34.0001 93.9277 68.3737 93.9277 68.3737 95.9999ZM49.5239 372.607 59.0047 378.138 49.5239 383.668C49.0469 383.946 48.4346 383.785 48.1563 383.308 47.878 382.831 48.0391 382.219 48.5162 381.941L56.5162 377.274 56.5162 379.001 48.5162 374.335C48.0391 374.056 47.878 373.444 48.1563 372.967 48.4346 372.49 49.0469 372.329 49.5239 372.607Z" fill="#0F9ED5"/><path d="M702 225.5C702 223.567 703.343 222 705 222 706.657 222 708 223.567 708 225.5 708 227.433 706.657 229 705 229 703.343 229 702 227.433 702 225.5Z" stroke="#0F9ED5" stroke-width="2" stroke-miterlimit="8" fill="#0F9ED5" fill-rule="evenodd"/><path d="M1.00127 1.97587 1.21774 338.867-0.782257 338.868-0.99873 1.97715ZM-5.52435 9.47968-3.07429e-06-0.0046348 5.53653 9.47257C5.81512 9.94944 5.65438 10.5619 5.1775 10.8405 4.70063 11.119 4.08821 10.9583 3.80962 10.4814L-0.862183 2.48443 0.865375 2.48332-3.79615 10.4863C-4.07412 10.9635-4.68634 11.1251-5.16357 10.8471-5.6408 10.5691-5.80233 9.95691-5.52435 9.47968Z" fill="#0F9ED5" transform="matrix(1 0 0 -1 705 567.867)"/><text font-family="DengXian,DengXian_MSFontService,sans-serif" font-weight="400" font-size="16" transform="translate(250.4 569)">addr</text><rect x="383" y="548" width="81" height="35" stroke="#000000" stroke-width="2" stroke-miterlimit="8" fill="none"/><text font-family="DengXian,DengXian_MSFontService,sans-serif" font-weight="400" font-size="19" transform="translate(397.313 571)">Merge</text><text font-family="DengXian,DengXian_MSFontService,sans-serif" font-weight="400" font-size="16" transform="translate(570.474 118)">AbsBranch</text><path d="M609 127 609 573.268 607 573.268 607 127ZM613.531 565.775 608 575.255 602.47 565.775C602.191 565.298 602.353 564.685 602.83 564.407 603.307 564.129 603.919 564.29 604.197 564.767L608.864 572.767 607.136 572.767 611.803 564.767C612.081 564.29 612.694 564.129 613.171 564.407 613.648 564.685 613.809 565.298 613.531 565.775Z" fill="#0F9ED5"/><path d="M615 619 599 615 599 579 615 575Z" stroke="#000000" stroke-width="2" stroke-miterlimit="8" fill="none" fill-rule="evenodd"/><text font-family="DengXian,DengXian_MSFontService,sans-serif" font-weight="700" font-size="11" transform="translate(606.838 591)">0</text><text font-family="DengXian,DengXian_MSFontService,sans-serif" font-weight="700" font-size="11" transform="translate(606.838 608)">1</text><path d="M1.29781e-06-1 74.229-0.999904 74.229 1.0001-1.29781e-06 1ZM72.8956-3.99991 80.8956 0.000104987 72.8956 4.00009Z" transform="matrix(-1 0 0 1 696.896 588)"/><path d="M464 564 635.934 564 635.934 605.805 622.135 605.805 622.135 603.805 634.934 603.805 633.934 604.805 633.934 565 634.934 566 464 566ZM623.469 608.805 615.469 604.805 623.469 600.805Z"/><path d="M247 573 376.727 573 376.727 575 247 575ZM375.394 570 383.394 574 375.394 578Z"/><path d="M348 537 349.533 537 349.533 559.067 348.533 558.067 376 558.067 376 560.067 347.533 560.067 347.533 538 348.533 539 348 539ZM374.667 555.067 382.667 559.067 374.667 563.067Z"/><path d="M345 537.5C345 535.567 346.343 534 348 534 349.657 534 351 535.567 351 537.5 351 539.433 349.657 541 348 541 346.343 541 345 539.433 345 537.5Z" stroke="#000000" stroke-width="2" stroke-miterlimit="8" fill-rule="evenodd"/><path d="M149 519 185.319 519 185.319 537.716 221.638 537.716" stroke="#000000" stroke-width="2" stroke-miterlimit="8" fill="none" fill-rule="evenodd"/><path d="M604 166.5C604 164.567 605.567 163 607.5 163 609.433 163 611 164.567 611 166.5 611 168.433 609.433 170 607.5 170 605.567 170 604 168.433 604 166.5Z" stroke="#0F9ED5" stroke-width="2" stroke-miterlimit="8" fill="#0F9ED5" fill-rule="evenodd"/><path d="M604.019 166.999 352.509 166.999 352.509 97 353.509 98 104.979 98 104.979 96 354.509 96 354.509 165.999 353.509 164.999 604.019 164.999ZM112.476 102.53 102.995 97 112.476 91.4696C112.953 91.1913 113.565 91.3524 113.844 91.8295 114.122 92.3065 113.961 92.9188 113.484 93.1971L105.484 97.8638 105.484 96.1362 113.484 100.803C113.961 101.081 114.122 101.693 113.844 102.171 113.565 102.648 112.953 102.809 112.476 102.53Z" fill="#0F9ED5"/><path d="M222 538 248.8 538" stroke="#000000" stroke-width="2" stroke-miterlimit="8" stroke-dasharray="2 2" fill="none" fill-rule="evenodd"/><path d="M1-1.73695e-06 1.00009 53.7767-0.999907 53.7767-1 1.73695e-06ZM4.00009 52.4434 0.000104987 60.4434-3.99991 52.4434Z" transform="matrix(1 0 0 -1 107 619.443)"/><text font-family="DengXian,DengXian_MSFontService,sans-serif" font-weight="400" font-size="16" transform="translate(94.0581 636)">CLK</text><path d="M1-2.67434e-06 1.00009 32.5904-0.999913 32.5905-1 2.67434e-06ZM4.00008 31.2571 0.000104987 39.2571-3.99992 31.2571Z" transform="matrix(1 0 0 -1 1151 509.257)"/><text font-family="DengXian,DengXian_MSFontService,sans-serif" font-weight="400" font-size="16" transform="translate(1137.51 527)">CLK</text><text font-family="DengXian,DengXian_MSFontService,sans-serif" font-weight="400" font-size="16" transform="translate(298.144 450)">CLK</text><path d="M0-1 97.0803-1 97.0803 5.819 95.0803 5.819 95.0803 0 96.0803 1 0 1ZM100.08 4.48567 96.0803 12.4857 92.0803 4.48567Z" transform="matrix(1 0 0 -1 328 445.486)"/></g></svg>